<svg width="194" height="146" viewBox="0 0 194 146" fill="none" xmlns="http://www.w3.org/2000/svg">
<path d="M19.9698 118.735C41.3341 118.735 62.6862 118.735 84.0505 118.735C105.306 118.735 126.561 118.735 147.804 118.735C159.795 118.735 171.775 118.735 183.766 118.735C183.997 118.735 183.997 118.37 183.766 118.37C162.402 118.37 141.05 118.37 119.686 118.37C98.4307 118.37 77.1756 118.37 55.9326 118.37C43.941 118.37 31.9615 118.37 19.9698 118.37C19.7395 118.37 19.7395 118.735 19.9698 118.735Z" fill="#E8E8E8"/>
<path d="M65.184 118.224C63.9472 117.652 62.8923 116.739 62.1891 115.559C61.8617 115.012 61.5828 114.391 61.4373 113.771C61.304 113.15 61.5465 112.517 62.274 112.615C62.7468 112.675 63.1227 112.992 63.4622 113.284C63.535 113.186 63.6077 113.089 63.6805 112.992C62.8923 112.481 62.274 111.775 61.8981 110.911C61.6435 110.315 61.0493 108.429 62.0678 108.247C62.1891 108.223 62.2255 108.077 62.177 107.979C61.207 105.972 60.9766 103.733 60.7705 101.543C60.6735 100.497 60.5765 99.2313 61.3888 98.4283C62.3467 97.455 63.6683 98.1363 64.4686 98.9637C65.96 100.509 66.736 102.711 67.5241 104.67C68.3486 106.726 69.064 108.819 69.5853 110.96C70.1795 113.442 70.4947 115.985 70.3613 118.528C70.3492 118.759 70.713 118.759 70.7251 118.528C70.9918 113.32 69.4277 108.271 67.4513 103.526C66.639 101.58 65.7175 99.0732 63.8017 97.9538C63.0621 97.528 62.1648 97.4063 61.4373 97.9173C60.6977 98.4405 60.4188 99.3652 60.3703 100.229C60.3097 101.555 60.5401 102.954 60.7462 104.256C60.9523 105.607 61.2918 106.933 61.886 108.162C61.9223 108.077 61.9587 107.979 61.9951 107.894C60.9281 108.089 61.1463 109.634 61.3525 110.376C61.6798 111.593 62.468 112.627 63.5228 113.308C63.6926 113.418 63.8987 113.15 63.7411 113.016C63.1591 112.53 62.4195 111.982 61.6313 112.335C60.7947 112.712 61.0251 113.685 61.2676 114.379C61.8981 116.216 63.2803 117.725 65.0263 118.528C65.2082 118.637 65.4022 118.321 65.184 118.224Z" fill="#E8E8E8"/>
<path d="M69.0518 107.639C68.6638 104.731 68.7851 101.884 69.6945 99.0853C70.131 97.7348 70.5917 96.3965 71.0403 95.0582C71.4041 93.9753 72.0467 91.9678 73.5866 92.9047C74.69 93.5738 74.8961 95.3502 75.1507 96.506C75.466 97.9173 75.6842 99.3408 75.8176 100.789C76.0722 103.514 76.0358 106.276 75.7448 109.001C75.4053 112.213 74.7385 115.389 73.8291 118.479C73.7685 118.71 74.108 118.795 74.1807 118.576C75.9388 112.578 76.8239 106.239 76.0964 100.01C75.9267 98.5013 75.66 97.0048 75.2962 95.5448C75.0173 94.4498 74.7263 93.075 73.623 92.5153C72.7136 92.0652 71.8406 92.5032 71.3556 93.3305C71.0767 93.805 70.9191 94.3525 70.7372 94.8635C70.4705 95.6665 70.2037 96.4573 69.937 97.2603C69.4035 98.8663 68.8336 100.448 68.6153 102.139C68.385 103.964 68.4577 105.814 68.7002 107.639C68.7123 107.87 69.0761 107.87 69.0518 107.639Z" fill="#E8E8E8"/>
<path d="M61.7648 98.1972C65.2568 104.439 68.0091 111.228 68.6396 118.43C68.6639 118.662 69.0276 118.662 69.0034 118.43C68.3607 111.167 65.6084 104.329 62.08 98.0147C61.9709 97.8078 61.6556 97.9903 61.7648 98.1972Z" fill="#E8E8E8"/>
<path d="M72.8954 92.7343C73.1864 94.8635 73.0773 97.017 72.9924 99.1583C72.9076 101.263 72.8227 103.368 72.7378 105.485C72.5681 109.768 72.4589 114.087 71.6708 118.309C71.6344 118.54 71.9739 118.637 72.0224 118.406C72.8106 114.148 72.9318 109.804 73.1016 105.485C73.1864 103.295 73.2834 101.105 73.3683 98.9272C73.4532 96.8345 73.5381 94.7297 73.2471 92.6492C73.2228 92.4058 72.8712 92.5153 72.8954 92.7343Z" fill="#E8E8E8"/>
<path d="M69.4156 98.8785C70.9555 100.959 72.0588 103.319 72.6408 105.838C72.6893 106.069 73.041 105.972 72.9925 105.74C72.3983 103.185 71.295 100.789 69.7308 98.6838C69.5975 98.5013 69.2822 98.6838 69.4156 98.8785Z" fill="#E8E8E8"/>
<path d="M75.1993 96.3478C74.2171 98.1363 73.4411 100.022 72.8713 101.993C72.8106 102.224 73.1623 102.322 73.2229 102.09C73.7806 100.156 74.5566 98.2945 75.5145 96.5303C75.6236 96.3357 75.3084 96.141 75.1993 96.3478Z" fill="#E8E8E8"/>
<path d="M62.0315 108.21C64.5898 109.257 66.7117 111.167 68.0576 113.588C68.1667 113.795 68.482 113.612 68.3728 113.405C66.9785 110.899 64.7717 108.952 62.1285 107.87C61.9102 107.76 61.8253 108.113 62.0315 108.21Z" fill="#E8E8E8"/>
<path d="M65.4507 99.9978C65.2325 102.078 65.3295 104.159 65.7175 106.215C65.766 106.446 66.1176 106.349 66.0691 106.118C65.6932 104.098 65.6083 102.042 65.8145 99.9978C65.8387 99.7667 65.475 99.7667 65.4507 99.9978Z" fill="#E8E8E8"/>
<path d="M22.2008 118.296C21.922 117.481 21.7158 116.63 21.6188 115.766C21.5825 115.401 21.5582 115.036 21.5582 114.659C21.5582 114.464 21.5218 114.184 21.5703 114.002C21.5703 113.929 21.5825 113.856 21.5825 113.783C21.8128 113.612 22.0068 113.637 22.1645 113.843C22.2736 113.941 22.4918 113.88 22.4797 113.71C22.4433 113.211 22.4433 112.712 22.504 112.213C22.5403 111.97 22.5767 111.727 22.6373 111.495C22.6616 111.41 22.9526 110.583 22.9768 110.619C23.0617 110.741 23.2678 110.741 23.3042 110.571C23.8256 108.417 24.7592 106.41 25.899 104.524C26.19 104.037 26.5052 103.55 26.8205 103.076C27.1721 102.553 27.7541 101.725 28.2876 102.638C28.8332 103.563 28.9908 104.913 29.0393 105.972C29.1606 108.21 28.6513 110.437 27.936 112.542C27.2448 114.598 26.384 116.654 24.9047 118.272C24.7471 118.442 25.0017 118.698 25.1593 118.528C26.4446 117.128 27.257 115.413 27.9238 113.649C28.6271 111.763 29.197 109.804 29.3667 107.797C29.4516 106.823 29.4395 105.838 29.294 104.865C29.1727 104.025 28.9908 102.954 28.4695 102.249C27.3903 100.813 26.1415 103.429 25.6928 104.159C24.4803 106.13 23.4982 108.222 22.9526 110.473C23.0617 110.461 23.1708 110.449 23.28 110.425C22.9768 110.023 22.601 110.425 22.4676 110.765C22.0917 111.678 22.019 112.736 22.1038 113.697C22.213 113.649 22.31 113.612 22.4191 113.564C22.1887 113.357 21.8128 113.089 21.4855 113.247C21.146 113.418 21.1945 113.88 21.1945 114.196C21.1581 115.62 21.3885 117.019 21.8492 118.37C21.922 118.613 22.2736 118.515 22.2008 118.296Z" fill="#E8E8E8"/>
<path d="M27.8026 102.224C27.3904 105.096 26.6992 107.918 25.7171 110.644C24.8077 113.199 23.28 115.668 22.9405 118.394C22.9162 118.625 23.28 118.625 23.3042 118.394C23.4861 116.946 24.0439 115.608 24.6259 114.294C25.1715 113.053 25.6929 111.8 26.1415 110.522C27.0751 107.858 27.742 105.108 28.1421 102.31C28.1785 102.091 27.8269 101.993 27.8026 102.224Z" fill="#E8E8E8"/>
<path d="M24.4561 106.568C24.5895 108.502 24.7835 110.425 25.0381 112.347C25.0745 112.578 25.414 112.481 25.3897 112.25C25.1351 110.364 24.9411 108.466 24.8199 106.568C24.8077 106.337 24.444 106.325 24.4561 106.568Z" fill="#E8E8E8"/>
<path d="M26.7234 108.746C27.6934 107.785 28.5301 106.702 29.2333 105.534C29.3546 105.327 29.0393 105.144 28.9181 105.351C28.2269 106.495 27.4146 107.541 26.4688 108.49C26.2991 108.648 26.5537 108.904 26.7234 108.746Z" fill="#E8E8E8"/>
<path d="M20.855 118.114C20.0183 116.91 19.3151 115.62 18.7816 114.245C18.5391 113.625 18.333 112.98 18.1632 112.335C18.0783 111.994 17.9935 111.654 17.9207 111.301C17.8722 111.094 17.557 109.743 17.9935 109.829C18.139 109.853 18.2481 109.743 18.2117 109.61C17.9086 107.931 17.7146 106.239 17.654 104.536C17.6297 103.757 17.6176 102.954 17.7873 102.2C17.8722 101.835 17.9935 101.409 18.236 101.105C18.7937 100.424 19.3757 100.983 19.7395 101.494C21.4855 103.952 22.601 106.909 23.1345 109.865C23.1708 110.096 23.5225 109.999 23.4861 109.768C23.1466 107.931 22.5888 106.154 21.825 104.463C21.4248 103.587 20.9762 102.748 20.467 101.945C20.1275 101.409 19.691 100.57 18.9998 100.424C17.4842 100.107 17.2902 102.76 17.2781 103.697C17.2538 105.716 17.4963 107.748 17.8601 109.731C17.9328 109.658 18.0056 109.585 18.0783 109.512C16.6233 109.257 17.8237 112.603 18.0056 113.174C18.5755 115.012 19.4363 116.751 20.5276 118.333C20.6731 118.491 20.9883 118.309 20.855 118.114Z" fill="#E8E8E8"/>
<path d="M18.4663 100.801C19.8243 105.023 20.9762 109.317 21.922 113.649C21.9705 113.88 22.3221 113.783 22.2736 113.551C21.3278 109.22 20.176 104.925 18.818 100.703C18.7452 100.484 18.3936 100.582 18.4663 100.801Z" fill="#E8E8E8"/>
<path d="M17.5812 106.446C19.0241 107.067 20.2002 108.125 20.952 109.5C21.0611 109.707 21.3764 109.524 21.2672 109.317C20.4791 107.882 19.2666 106.775 17.7631 106.13C17.5449 106.045 17.363 106.361 17.5812 106.446Z" fill="#E8E8E8"/>
<path d="M20.9641 103.344C20.6488 104.548 20.4548 105.765 20.3821 107.006C20.3699 107.237 20.7337 107.237 20.7458 107.006C20.8064 105.801 21.0004 104.609 21.3157 103.441C21.3763 103.21 21.0247 103.113 20.9641 103.344Z" fill="#E8E8E8"/>
<path d="M167.701 118.552C166.743 116.216 166.464 113.673 166.949 111.191C166.888 111.24 166.828 111.276 166.779 111.325C167.058 111.276 167.264 111.398 167.41 111.702C167.47 111.872 167.786 111.872 167.761 111.653C167.652 110.583 167.652 109.5 167.786 108.429C167.858 107.894 167.955 107.371 168.089 106.848C168.149 106.604 168.222 106.361 168.295 106.118C168.343 105.984 168.38 105.838 168.428 105.704C168.513 105.509 168.562 105.302 168.562 105.083C168.659 105.144 168.768 105.205 168.865 105.266C169.277 103.04 170.356 101.032 171.957 99.4503C171.872 99.4503 171.787 99.4503 171.702 99.4503C172.26 100.047 172.284 100.898 172.369 101.665C172.454 102.468 172.514 103.271 172.551 104.074C172.636 105.643 172.636 107.225 172.551 108.794C172.393 112.043 171.896 115.255 171.072 118.394C171.011 118.625 171.363 118.722 171.423 118.491C172.284 115.17 172.793 111.763 172.927 108.332C172.999 106.604 172.963 104.877 172.842 103.161C172.757 101.932 172.854 100.168 171.945 99.1948C171.872 99.1218 171.751 99.1218 171.69 99.1948C170.041 100.813 168.925 102.894 168.501 105.169C168.465 105.339 168.671 105.485 168.804 105.351C168.828 105.327 168.841 105.315 168.865 105.29C168.913 105.242 168.938 105.181 168.913 105.108C168.816 104.828 168.562 104.743 168.343 104.974C168.186 105.132 168.125 105.412 168.052 105.619C167.907 106.032 167.786 106.446 167.677 106.872C167.289 108.442 167.192 110.06 167.361 111.666C167.483 111.653 167.604 111.629 167.713 111.617C167.543 111.191 167.204 110.936 166.731 110.972C166.658 110.972 166.573 111.021 166.561 111.106C166.076 113.649 166.331 116.265 167.313 118.661C167.446 118.856 167.798 118.771 167.701 118.552Z" fill="#E8E8E8"/>
<path d="M173.109 108.734C173.424 106.568 174.285 104.5 175.643 102.772C175.97 102.358 176.31 101.981 176.685 101.616C176.928 101.385 177.474 100.728 177.849 101.275C177.995 101.482 177.983 101.823 177.983 102.066C177.971 103.246 177.813 104.451 177.631 105.631C176.94 110.194 175.315 114.586 172.878 118.503C172.757 118.698 173.072 118.893 173.193 118.686C175.412 115.097 176.964 111.13 177.765 106.981C177.959 105.984 178.104 104.986 178.201 103.976C178.286 103.161 178.541 102.054 178.237 101.263C177.595 99.5598 175.691 102.115 175.23 102.711C173.909 104.439 173.06 106.483 172.757 108.636C172.733 108.867 173.084 108.965 173.109 108.734Z" fill="#E8E8E8"/>
<path d="M172.902 107.821C172.757 109.877 172.478 111.909 172.066 113.929C172.017 114.16 172.369 114.257 172.417 114.026C172.842 111.982 173.121 109.914 173.266 107.821C173.278 107.59 172.915 107.59 172.902 107.821Z" fill="#E8E8E8"/>
<path d="M177.583 100.959C175.521 106.762 173.533 112.578 171.605 118.43C171.532 118.649 171.884 118.747 171.957 118.528C173.872 112.675 175.861 106.86 177.934 101.056C178.007 100.837 177.655 100.74 177.583 100.959Z" fill="#E8E8E8"/>
<path d="M171.641 99.5963C170.696 105.923 169.738 112.237 168.792 118.564C168.756 118.795 169.107 118.893 169.144 118.661C170.089 112.335 171.047 106.02 171.993 99.6937C172.029 99.4625 171.678 99.353 171.641 99.5963Z" fill="#E8E8E8"/>
<path d="M168.465 105.01C168.865 107.468 169.265 109.914 169.665 112.371C169.702 112.602 170.053 112.505 170.017 112.274C169.617 109.816 169.217 107.371 168.816 104.913C168.78 104.682 168.428 104.779 168.465 105.01Z" fill="#E8E8E8"/>
<path d="M172.551 103.137C171.738 104.524 171.047 105.972 170.477 107.48C170.393 107.699 170.744 107.797 170.829 107.578C171.387 106.105 172.066 104.682 172.866 103.331C172.987 103.112 172.672 102.93 172.551 103.137Z" fill="#E8E8E8"/>
<path d="M174.079 104.573C174.079 106.665 174.079 108.77 174.079 110.863C174.079 111.094 174.442 111.094 174.442 110.863C174.442 108.77 174.442 106.665 174.442 104.573C174.442 104.341 174.079 104.341 174.079 104.573Z" fill="#E8E8E8"/>
<path d="M60.5401 123.406C61.3403 122.895 62.2982 122.737 63.2076 123.017C63.9957 123.26 64.6505 123.589 65.4992 123.552C66.2873 123.516 67.0512 123.309 67.8393 123.26C68.2637 123.236 68.6881 123.248 69.1003 123.394C69.5126 123.54 69.8036 123.759 70.2401 123.784C70.4705 123.796 70.4705 123.431 70.2401 123.419C69.743 123.394 69.3186 123.041 68.8336 122.944C68.4456 122.871 68.0455 122.871 67.6453 122.908C66.7966 122.993 65.96 123.236 65.1112 123.187C64.2261 123.139 63.4743 122.603 62.6013 122.518C61.8011 122.445 61.0251 122.664 60.3582 123.09C60.1642 123.212 60.3461 123.528 60.5401 123.406Z" fill="#E8E8E8"/>
<path d="M91.3619 122.372C92.5744 122.336 93.7869 122.287 94.9873 122.251C95.5814 122.226 96.1998 122.166 96.7939 122.214C97.291 122.251 97.6669 122.531 98.1276 122.64C98.5035 122.725 98.8673 122.664 99.2431 122.579C99.8858 122.433 100.516 122.299 101.183 122.275C102.335 122.214 103.487 122.348 104.627 122.482C104.857 122.506 104.857 122.141 104.627 122.117C103.487 121.983 102.335 121.849 101.183 121.91C100.638 121.934 100.092 122.007 99.5584 122.129C98.9158 122.275 98.4186 122.384 97.8003 122.105C96.903 121.715 95.9573 121.849 95.0115 121.886C93.799 121.922 92.5865 121.971 91.3861 122.007C91.1315 122.02 91.1315 122.385 91.3619 122.372Z" fill="#E8E8E8"/>
<path d="M134.939 134.624C136.164 134.807 137.364 134.575 138.565 134.344C139.304 134.198 140.044 134.052 140.808 134.028C141.559 134.004 142.263 134.174 142.99 134.344C143.621 134.49 144.227 134.551 144.87 134.478C145.512 134.393 146.131 134.223 146.773 134.15C148.168 133.979 149.477 134.661 150.871 134.575C151.102 134.563 151.102 134.198 150.871 134.21C149.574 134.283 148.362 133.675 147.064 133.748C146.446 133.785 145.852 133.943 145.233 134.052C144.409 134.198 143.681 134.138 142.869 133.943C141.656 133.639 140.529 133.614 139.292 133.833C137.873 134.077 136.467 134.478 135.024 134.271C134.806 134.235 134.709 134.588 134.939 134.624Z" fill="#E8E8E8"/>
<path d="M168.55 122.81C170.975 121.995 173.606 122.762 176.104 122.421C176.807 122.324 177.522 122.202 178.238 122.263C178.832 122.312 179.389 122.543 179.971 122.604C180.578 122.652 181.172 122.482 181.766 122.421C182.506 122.348 183.233 122.397 183.961 122.531C184.191 122.579 184.288 122.226 184.058 122.178C183.451 122.068 182.833 122.007 182.215 122.02C181.56 122.044 180.929 122.226 180.275 122.239C179.656 122.251 179.074 121.983 178.456 121.91C177.789 121.825 177.122 121.91 176.455 121.995C175.037 122.19 173.679 122.178 172.26 122.105C170.963 122.044 169.677 122.032 168.441 122.458C168.234 122.531 168.319 122.883 168.55 122.81Z" fill="#E8E8E8"/>
<path d="M68.2637 132.215C78.2668 132.215 88.2821 132.215 98.2852 132.215C98.5156 132.215 98.5156 131.85 98.2852 131.85C88.2821 131.85 78.2668 131.85 68.2637 131.85C68.0333 131.85 68.0333 132.215 68.2637 132.215Z" fill="#161616"/>
<path d="M96.1876 134.198C101.329 134.198 106.457 134.198 111.598 134.198C111.829 134.198 111.829 133.833 111.598 133.833C106.457 133.833 101.329 133.833 96.1876 133.833C95.9451 133.833 95.9451 134.198 96.1876 134.198Z" fill="#161616"/>
<path d="M135.291 128.383C140.686 128.383 146.094 128.383 151.49 128.383C151.72 128.383 151.72 128.018 151.49 128.018C146.094 128.018 140.686 128.018 135.291 128.018C135.06 128.018 135.06 128.383 135.291 128.383Z" fill="#161616"/>
<path d="M157.674 128.918C160.875 128.918 164.088 128.918 167.289 128.918C167.519 128.918 167.519 128.553 167.289 128.553C164.088 128.553 160.875 128.553 157.674 128.553C157.443 128.553 157.443 128.918 157.674 128.918Z" fill="#161616"/>
<path d="M25.8626 125.219C31.5735 125.219 37.2722 125.219 42.9831 125.219C43.2135 125.219 43.2135 124.854 42.9831 124.854C37.2722 124.854 31.5735 124.854 25.8626 124.854C25.6322 124.854 25.6322 125.219 25.8626 125.219Z" fill="#161616"/>
<path d="M42.195 123.893C45.3596 123.893 48.5121 123.893 51.6768 123.893C51.9071 123.893 51.9071 123.528 51.6768 123.528C48.5121 123.528 45.3596 123.528 42.195 123.528C41.9646 123.528 41.9646 123.893 42.195 123.893Z" fill="#161616"/>
<path d="M96.5998 126.862C100.747 126.862 104.881 126.862 109.028 126.862C109.258 126.862 109.258 126.497 109.028 126.497C104.881 126.497 100.747 126.497 96.5998 126.497C96.3573 126.497 96.3573 126.862 96.5998 126.862Z" fill="#161616"/>
<path d="M150.047 63.802C150.095 62.8652 151.866 63.802 152.363 63.7168C153.018 63.6073 153.163 62.8773 153.915 63.0355C154.376 63.1328 154.812 63.3518 155.297 63.3032C155.612 63.2667 155.843 63.0842 156.146 62.999C156.619 62.8652 157.092 63.0112 157.443 63.3518C157.613 63.51 157.868 63.2545 157.698 63.0963C157.164 62.5853 156.497 62.4758 155.818 62.7313C155.249 62.9503 154.909 62.926 154.339 62.7557C154.06 62.6705 153.769 62.5853 153.478 62.6218C153.139 62.6705 153.005 62.8408 152.775 63.0477C152.084 63.6438 151.587 63.0963 150.859 62.9868C150.301 62.9017 149.732 63.1815 149.695 63.802C149.671 64.0453 150.035 64.0453 150.047 63.802Z" fill="#5222D0"/>
<path d="M152.12 61.9527C152.217 61.1497 153.624 61.831 154.036 61.8675C154.594 61.9162 154.727 61.5998 155.127 61.3078C155.867 60.7603 156.4 61.4538 157.14 61.4173C157.346 61.4052 157.455 61.2835 157.625 61.1862C158.098 60.9185 158.559 60.8577 158.983 61.2592C159.153 61.4173 159.407 61.1618 159.238 61.0037C158.74 60.5413 158.146 60.5048 157.552 60.7725C157.285 60.8942 157.443 61.028 156.982 61.028C156.752 61.028 156.461 60.8455 156.231 60.7847C155.903 60.6995 155.564 60.6508 155.236 60.7847C154.703 61.0037 154.679 61.539 153.927 61.4782C153.551 61.4538 153.224 61.2227 152.836 61.1983C152.314 61.1618 151.805 61.3808 151.732 61.9405C151.72 62.1838 152.084 62.1838 152.12 61.9527Z" fill="#5222D0"/>
<path d="M37.0783 105.96C37.5754 105.595 37.9998 105.424 38.5818 105.704C38.8121 105.813 39.0304 105.935 39.285 105.984C39.8185 106.069 40.3035 105.801 40.7764 105.595C41.2129 105.4 41.5766 105.29 42.0374 105.534C42.292 105.668 42.4981 105.85 42.7891 105.899C43.3711 106.008 44.232 105.449 44.6928 105.899C44.8625 106.057 45.1171 105.801 44.9474 105.643C44.4988 105.205 43.9531 105.412 43.3954 105.509C43.0195 105.57 42.777 105.558 42.4375 105.363C42.2799 105.266 42.1344 105.144 41.9525 105.084C41.71 104.998 41.4675 104.986 41.2129 105.035C40.8855 105.108 40.5824 105.278 40.2671 105.412C39.6973 105.655 39.3214 105.643 38.7394 105.388C37.9998 105.047 37.5269 105.156 36.86 105.643C36.7145 105.777 36.8964 106.093 37.0783 105.96Z" fill="#5222D0"/>
<path d="M40.5824 104.074C41.4069 103.149 42.8134 104.22 43.8319 104.001C44.2078 103.916 44.4503 103.794 44.8383 103.928C45.0687 104.013 45.2627 104.171 45.493 104.256C45.9417 104.414 46.366 104.341 46.7783 104.147C46.9844 104.049 46.8025 103.733 46.5964 103.83C45.7477 104.244 45.3718 103.599 44.6322 103.478C44.4018 103.441 44.2199 103.502 44.0017 103.575C43.5894 103.697 43.2742 103.709 42.8377 103.611C41.9889 103.429 40.9947 103.064 40.3035 103.83C40.1702 103.989 40.4248 104.244 40.5824 104.074Z" fill="#5222D0"/>
<path d="M66.6996 54.1173C65.7539 53.3995 66.3844 51.7935 67.5969 52.0612C68.094 52.1707 68.5184 52.5722 68.5184 53.1075C68.5184 53.7402 67.9849 54.2998 67.3665 54.3363C67.1361 54.3485 67.1361 54.7135 67.3665 54.7013C68.1425 54.6648 68.7972 54.0443 68.8821 53.2657C68.9549 52.5113 68.4093 51.8787 67.6939 51.7205C66.057 51.3433 65.2689 53.4968 66.5177 54.4458C66.6996 54.5797 66.8815 54.2633 66.6996 54.1173Z" fill="#5222D0"/>
<path d="M29.9852 93.0872C29.3789 92.418 29.9488 91.2257 30.8824 91.4812C32.01 91.7853 31.719 93.3792 30.5914 93.367C30.361 93.367 30.361 93.732 30.5914 93.732C31.2704 93.732 31.8888 93.221 31.9858 92.5397C32.0828 91.907 31.6584 91.3595 31.0764 91.1527C29.7548 90.6903 28.8333 92.3572 29.7305 93.3427C29.8882 93.513 30.1428 93.2575 29.9852 93.0872Z" fill="#EC615B"/>
<path d="M92.5138 89.279C92.0651 89.6075 91.7256 90.0455 91.5801 90.5808C91.4104 91.2135 91.8469 92.1017 91.4225 92.5762C91.1558 92.8803 90.695 93.0872 90.5738 93.5008C90.5253 93.6468 90.5374 93.7807 90.5859 93.9267C90.6465 94.1335 90.7314 94.17 90.7314 94.389C90.7314 94.754 90.4161 94.9122 90.113 95.0703C89.9069 95.1798 90.0888 95.4962 90.2949 95.3867C90.6829 95.1798 91.18 94.8392 91.1436 94.3403C91.1194 94.024 90.8163 93.8293 90.986 93.4887C91.0951 93.2818 91.374 93.1237 91.5316 92.9655C91.8348 92.6857 92.0409 92.3937 91.9924 91.9678C91.9318 91.5055 91.7984 91.1527 91.9196 90.6782C92.0409 90.228 92.3076 89.863 92.6835 89.5953C92.8775 89.4615 92.6956 89.1452 92.5138 89.279Z" fill="#EC615B"/>
<path d="M94.2961 90.4957C93.2655 90.3983 93.1442 91.6758 93.1927 92.418C93.217 92.8317 93.2412 93.2453 92.9866 93.586C92.8532 93.7563 92.6592 93.8902 92.5743 94.097C92.5016 94.2795 92.5501 94.4255 92.5865 94.6202C92.6956 95.2163 92.3682 95.6057 91.9681 95.995C91.7983 96.1653 92.053 96.4208 92.2227 96.2505C92.538 95.9342 92.9017 95.5692 92.9866 95.1068C93.023 94.8878 92.9381 94.7175 92.9381 94.5107C92.9381 94.1335 93.1685 93.9997 93.3382 93.732C93.605 93.3427 93.5928 92.8682 93.5565 92.418C93.5201 91.8948 93.4837 90.7877 94.2961 90.8607C94.5386 90.885 94.5265 90.52 94.2961 90.4957Z" fill="#EC615B"/>
<path d="M95.3995 45.5033C95.448 44.6638 96.8545 44.9802 97.3759 44.7003C97.7518 44.4935 97.97 44.1163 98.1762 43.7635C98.2974 43.5567 98.4065 43.3255 98.5642 43.143C98.8794 42.778 99.2432 42.8267 99.6797 42.7902C100.25 42.7415 100.71 42.4617 101.062 42.0115C101.207 41.829 100.953 41.5735 100.807 41.756C100.468 42.194 100.043 42.4008 99.4978 42.4373C99.231 42.4495 98.9764 42.4373 98.7218 42.559C98.261 42.7902 98.0428 43.289 97.8003 43.7148C97.6063 44.0433 97.4244 44.311 97.0607 44.4448C96.709 44.5787 96.3089 44.5057 95.9452 44.5908C95.4602 44.7003 95.0843 45.0045 95.0479 45.5155C95.0237 45.7345 95.3874 45.7345 95.3995 45.5033Z" fill="#EC615B"/>
<path d="M96.4665 47.0242C96.8303 46.428 97.5699 46.282 98.1519 45.99C98.6733 45.7345 98.94 45.406 99.0977 44.8463C99.328 43.9825 99.9949 44.092 100.735 43.9825C101.183 43.9095 101.547 43.7635 101.729 43.3133C101.814 43.0943 101.462 42.997 101.377 43.216C101.147 43.7635 100.237 43.6297 99.7524 43.7392C99.2553 43.8365 98.9158 44.0677 98.7703 44.5665C98.6369 45.0167 98.5884 45.2965 98.1762 45.552C97.9215 45.7102 97.6305 45.8197 97.3517 45.9413C96.8667 46.1482 96.418 46.3793 96.1392 46.8417C96.03 47.0363 96.3453 47.2188 96.4665 47.0242Z" fill="#EC615B"/>
<path d="M151.114 102.845C150.823 101.944 151.744 101.02 152.617 101.567C153.575 102.163 153.042 103.526 151.975 103.502C151.744 103.49 151.744 103.855 151.975 103.867C153.333 103.916 154.048 102.176 152.908 101.336C151.793 100.509 150.362 101.677 150.762 102.954C150.835 103.173 151.187 103.076 151.114 102.845Z" fill="#EC615B"/>
<path d="M93.993 114.853C93.6535 114.221 94.0173 113.296 94.8296 113.418C95.157 113.466 95.4723 113.71 95.4723 114.075C95.4723 114.428 95.1934 114.78 94.8296 114.793C94.5993 114.805 94.5993 115.17 94.8296 115.158C95.9694 115.109 96.1755 113.491 95.1085 113.114C93.9324 112.712 93.1564 114.05 93.6778 115.036C93.799 115.243 94.1143 115.06 93.993 114.853Z" fill="#EC615B"/>
<path d="M145.524 43.4228C145.173 43.0335 145.682 42.486 146.118 42.7415C146.664 43.07 146.337 43.7392 145.827 43.873C145.597 43.9338 145.694 44.2867 145.924 44.2258C146.81 44.0068 147.113 42.7537 146.167 42.3643C145.367 42.0358 144.688 43.0457 145.258 43.6783C145.427 43.8608 145.682 43.6053 145.524 43.4228Z" fill="#EC615B"/>
<path d="M20.8429 55.845C20.1396 55.48 20.564 54.3607 21.3521 54.5918C22.2736 54.8595 21.9584 56.0518 21.146 56.2222C20.9156 56.2708 21.0126 56.6237 21.243 56.575C22.4555 56.3073 22.6859 54.5067 21.3521 54.2147C20.2003 53.9592 19.6183 55.6138 20.6489 56.1492C20.8671 56.2708 21.049 55.9545 20.8429 55.845Z" fill="#5222D0"/>
<path d="M18.1511 64.2522C18.1269 69.1675 18.1148 74.095 18.0905 79.0103C40.352 78.9252 62.6135 78.84 84.875 78.767C84.8144 73.9247 84.7416 69.0823 84.681 64.24C62.5044 64.24 40.3278 64.2522 18.1511 64.2522Z" fill="#5222D0"/>
<path d="M17.654 64.2157C17.654 68.985 17.654 73.7422 17.654 78.5115C17.654 78.986 18.3815 78.986 18.3815 78.5115C18.3815 73.7422 18.3815 68.985 18.3815 64.2157C18.3815 63.7412 17.654 63.7412 17.654 64.2157Z" fill="#161616"/>
<path d="M18.3572 64.4103C27.0023 64.4103 35.6475 64.4103 44.2926 64.4103C52.9741 64.4103 61.6677 64.4103 70.3492 64.4103C75.2356 64.4103 80.122 64.4103 85.0205 64.4103C85.4934 64.4103 85.4934 63.6803 85.0205 63.6803C76.3754 63.6803 67.7302 63.6803 59.0851 63.6803C50.4036 63.6803 41.71 63.6803 33.0285 63.6803C28.1421 63.6803 23.2557 63.6803 18.3572 63.6803C17.8843 63.6803 17.8843 64.4103 18.3572 64.4103Z" fill="#161616"/>
<path d="M84.6204 64.0332C84.681 68.9972 84.7416 73.9733 84.8022 78.9373C84.8022 79.4118 85.5297 79.4118 85.5297 78.9373C85.4691 73.9733 85.4085 68.9972 85.3479 64.0332C85.3479 63.5708 84.6204 63.5708 84.6204 64.0332Z" fill="#161616"/>
<path d="M18.0177 79.2172C26.7599 79.2172 35.4899 79.2172 44.232 79.2172C52.9741 79.2172 61.7041 79.2172 70.4462 79.2172C75.3569 79.2172 80.2675 79.2172 85.1902 79.2172C85.6631 79.2172 85.6631 78.4872 85.1902 78.4872C76.4481 78.4872 67.7181 78.4872 58.976 78.4872C50.2339 78.4872 41.5039 78.4872 32.7617 78.4872C27.8511 78.4872 22.9405 78.4872 18.0177 78.4872C17.5449 78.4872 17.5449 79.2172 18.0177 79.2172Z" fill="#161616"/>
<path d="M23.6801 70.4085C24.1772 69.1918 24.444 67.9143 24.5167 66.6003C24.3955 66.6003 24.2742 66.6003 24.153 66.6003C24.1045 70.08 24.056 73.5597 24.0196 77.0272C24.0196 77.2583 24.3834 77.2583 24.3834 77.0272C24.4319 73.5475 24.4804 70.0678 24.5167 66.6003C24.5167 66.3692 24.1651 66.3692 24.153 66.6003C24.0924 67.8778 23.8135 69.1188 23.3285 70.3112C23.2436 70.5302 23.5952 70.6153 23.6801 70.4085Z" fill="white"/>
<path d="M29.1 70.2017C28.7848 69.7028 28.6635 69.1188 28.8211 68.5348C29.003 67.8657 29.8639 67.0262 30.4338 67.9265C30.9188 68.7052 30.4459 70.0678 30.2034 70.8708C29.6578 72.7202 28.6514 74.3992 27.2934 75.774C27.1964 75.8835 27.2449 76.0295 27.3783 76.0782C28.9303 76.6622 30.7369 77.234 32.2161 76.1633C32.4101 76.0295 32.2283 75.7132 32.0343 75.847C30.6278 76.8568 28.9303 76.2728 27.4753 75.7253C27.4995 75.8227 27.5238 75.9322 27.5601 76.0295C28.5423 75.0197 29.3668 73.8638 29.9488 72.5863C30.4944 71.394 31.0279 69.934 30.9794 68.5957C30.943 67.6588 30.1185 66.7342 29.1728 67.379C28.2149 68.036 28.227 69.4595 28.7848 70.372C28.906 70.5788 29.2213 70.3963 29.1 70.2017Z" fill="white"/>
<path d="M34.8108 67.744C36.0597 67.6832 37.2843 67.744 38.5211 67.9387C38.4847 67.8535 38.4483 67.7562 38.412 67.671C37.7208 68.5713 36.9085 69.3257 35.9627 69.9462C35.7687 70.08 35.9385 70.3598 36.1446 70.2625C37.054 69.8123 38.0361 70.3963 38.4605 71.248C38.8242 71.9902 38.8485 72.8905 38.6908 73.6813C38.5332 74.46 38.1331 75.2265 37.4298 75.6523C36.6781 76.1025 35.6838 76.1025 35.017 75.5063C34.8472 75.3482 34.5805 75.6037 34.7623 75.7618C35.4656 76.3945 36.4598 76.4918 37.3086 76.1147C38.315 75.6767 38.8848 74.6425 39.0667 73.5962C39.2365 72.5863 39.1273 71.4062 38.4726 70.5788C37.8663 69.8245 36.8478 69.5203 35.9627 69.9462C36.0233 70.0557 36.084 70.153 36.1446 70.2625C37.1388 69.6177 37.9997 68.8147 38.7272 67.8657C38.8 67.7805 38.7272 67.6102 38.6181 67.598C37.3571 67.4033 36.084 67.3303 34.8108 67.3912C34.5683 67.3912 34.5683 67.7562 34.8108 67.744Z" fill="white"/>
<path d="M44.6443 67.2087C44.523 68.1942 44.2926 69.1067 44.0138 70.0557C43.8683 70.5667 43.941 70.7492 44.4866 70.7978C45.4445 70.883 46.4145 70.9073 47.3845 70.9682C47.6755 70.9803 48.7546 71.2723 48.8274 70.7735C48.8638 70.5423 48.5121 70.445 48.4758 70.6762C48.4758 70.7005 45.0444 70.4815 44.7291 70.445C44.6321 70.445 44.5351 70.4328 44.4503 70.3963C44.2926 70.4207 44.2441 70.372 44.329 70.2503C44.3169 70.1408 44.4381 69.9218 44.4745 69.8123C44.5594 69.5203 44.6443 69.2283 44.717 68.9242C44.8504 68.3523 44.9474 67.7683 45.0201 67.1843C45.0323 66.9775 44.6685 66.9775 44.6443 67.2087Z" fill="white"/>
<path d="M46.8995 67.8778C46.9843 70.4572 47.1056 73.0487 47.2511 75.628C47.2632 75.8592 47.627 75.8592 47.6148 75.628C47.4693 73.0487 47.3602 70.4693 47.2632 67.8778C47.2511 67.6467 46.8873 67.6467 46.8995 67.8778Z" fill="white"/>
<path d="M50.149 67.2938C50.8159 67.1965 51.4585 67.2938 52.1253 67.3547C52.4042 67.379 52.6952 67.4033 52.9862 67.3912C53.0832 67.3912 53.641 67.2695 53.7137 67.306C53.6895 67.2208 53.6652 67.1357 53.6531 67.0505C53.641 67.0627 53.641 67.0748 53.6288 67.087C53.7137 67.0627 53.7986 67.0383 53.8835 67.0262C53.8713 67.0262 53.8592 67.014 53.8592 67.014C53.6531 66.9167 53.4591 67.2208 53.6774 67.3303C53.6895 67.3303 53.7016 67.3425 53.7016 67.3425C53.7865 67.379 53.8956 67.3668 53.9562 67.2817C53.9683 67.2695 53.9684 67.2573 53.9805 67.2452C54.029 67.16 54.0047 67.0505 53.9199 66.9897C53.7986 66.9167 53.7137 66.9532 53.5803 66.9653C53.1317 67.0018 52.7195 67.0383 52.2587 67.0018C51.5191 66.941 50.8158 66.8315 50.0762 66.941C49.8216 66.9775 49.9186 67.3303 50.149 67.2938Z" fill="white"/>
<path d="M49.8701 67.1357C50.246 68.0482 50.4885 68.985 50.6098 69.9583C50.6219 70.0678 50.7189 70.1773 50.8401 70.1287C51.5919 69.8732 52.3315 69.8853 52.9256 70.4693C53.4834 71.029 53.641 71.832 53.5198 72.5985C53.4228 73.2798 53.1439 74.168 52.4528 74.4478C51.6525 74.7763 50.8159 74.3383 50.1126 73.9612C49.9065 73.8517 49.7246 74.168 49.9308 74.2775C50.731 74.7033 51.6889 75.1778 52.5983 74.7885C53.4106 74.4478 53.7623 73.4502 53.8835 72.6472C54.0169 71.7712 53.8108 70.8587 53.1803 70.2138C52.5013 69.5325 51.6283 69.4717 50.7431 69.7758C50.8159 69.8367 50.9008 69.8975 50.9735 69.9462C50.8523 68.9363 50.5976 67.963 50.2218 67.0262C50.1248 66.8193 49.7731 66.9167 49.8701 67.1357Z" fill="white"/>
<path d="M57.715 66.9288C56.4176 67.817 55.5203 69.204 55.2415 70.7492C55.0353 71.8928 55.0232 73.9612 56.3085 74.5087C57.5937 75.0562 58.6122 73.3042 58.1393 72.2092C57.6907 71.175 55.581 71.0412 55.2536 72.2457C55.193 72.4768 55.5446 72.5742 55.6052 72.343C55.775 71.7347 56.6843 71.686 57.1815 71.832C57.9332 72.051 58.0423 72.9392 57.715 73.5597C57.3148 74.314 56.4418 74.46 55.9447 73.7178C55.6537 73.292 55.5567 72.7688 55.5082 72.27C55.3385 70.3112 56.2721 68.3523 57.8847 67.233C58.0908 67.1113 57.909 66.795 57.715 66.9288Z" fill="white"/>
<path d="M64.8445 68.328C64.8081 68.2428 64.5899 67.817 64.6384 67.6588C64.5899 67.5007 64.6748 67.4642 64.8688 67.5372C64.9536 67.5372 65.0264 67.5372 65.1113 67.5372C65.5114 67.525 65.8994 67.525 66.2995 67.5128C67.0876 67.5007 67.8758 67.4763 68.676 67.4642C68.6275 67.3668 68.5669 67.2817 68.5184 67.1843C67.1846 69.8975 66.3116 72.8053 65.9479 75.8227C66.0691 75.8105 66.1904 75.7862 66.2995 75.774C66.2874 75.6888 66.2753 75.6037 66.2631 75.5185C66.2268 75.2873 65.8751 75.3847 65.9115 75.6158C65.9236 75.701 65.9358 75.7862 65.9479 75.8713C65.9843 76.0903 66.2874 76.0052 66.2995 75.8227C66.6633 72.8783 67.512 70.0313 68.8215 67.3668C68.8821 67.2452 68.8094 67.087 68.6639 67.087C67.3665 67.1113 66.057 67.1113 64.7475 67.1722C63.9351 67.2087 64.2867 67.9752 64.5171 68.5105C64.6141 68.7295 64.9294 68.5348 64.8445 68.328Z" fill="white"/>
<path d="M65.2931 72.0388C66.3844 72.2943 67.4756 72.2457 68.5426 71.905C68.7609 71.832 68.6639 71.4792 68.4456 71.5522C67.4392 71.8807 66.4207 71.9172 65.3901 71.686C65.1597 71.6252 65.0627 71.978 65.2931 72.0388Z" fill="white"/>
<path d="M74.3505 67.6102C73.7564 68.9363 73.1744 70.2625 72.5803 71.5887C72.3014 72.2213 72.0225 72.8418 71.7436 73.4745C71.4769 74.0707 71.2708 74.8372 70.8949 75.3725C70.7615 75.5672 71.0768 75.7497 71.2101 75.555C71.5496 75.0562 71.7558 74.3262 72.0104 73.7665C72.3014 73.0973 72.6045 72.4403 72.8955 71.7712C73.4896 70.445 74.0716 69.1188 74.6658 67.7927C74.7628 67.5858 74.4475 67.4033 74.3505 67.6102Z" fill="white"/>
<path d="M74.4838 67.5372C73.7442 66.795 72.5681 67.3668 71.8527 67.8657C71.004 68.4497 70.3492 69.4838 70.7615 70.5423C71.2222 71.7468 72.556 72.0753 73.4168 72.8905C74.108 73.5353 74.4232 74.5695 73.5624 75.2265C72.847 75.774 71.9012 75.6523 71.0646 75.4942C70.8342 75.4455 70.7372 75.7983 70.9676 75.847C71.9982 76.0417 73.1744 76.1512 73.9867 75.336C74.69 74.6303 74.5566 73.6205 73.9504 72.9027C73.138 71.9172 71.4405 71.613 71.0646 70.2747C70.81 69.3865 71.4405 68.5835 72.1316 68.1212C72.6772 67.7562 73.6715 67.2087 74.2535 67.7805C74.3869 67.963 74.6415 67.7075 74.4838 67.5372Z" fill="white"/>
<path d="M79.3824 67.9387C80.0493 67.2817 79.249 66.4787 78.5094 66.4787C77.6122 66.4908 76.2905 67.087 76.0602 68.036C75.854 68.8998 76.6543 69.7028 77.503 69.7272C78.5458 69.7515 79.2127 68.7538 79.3218 67.817C79.2005 67.8292 79.0793 67.8535 78.9702 67.8657C79.2854 69.496 79.3703 71.175 79.1884 72.8297C79.1035 73.5597 78.9702 74.5817 78.1335 74.8372C77.1635 75.1292 76.3754 74.2775 75.9147 73.5475C75.7934 73.3528 75.4782 73.5353 75.5994 73.73C76.0602 74.4478 76.6785 75.1535 77.5758 75.2387C78.3639 75.3117 78.9702 74.8858 79.2612 74.168C79.6249 73.2798 79.6249 72.1727 79.6249 71.2358C79.637 70.0678 79.5158 68.912 79.2975 67.7683C79.2612 67.5493 78.958 67.6345 78.9459 67.817C78.8732 68.4618 78.4973 69.1188 77.8425 69.3135C77.2363 69.496 76.4967 69.0945 76.3997 68.4375C76.3027 67.8048 76.8847 67.3912 77.3939 67.1478C77.6485 67.0383 77.9153 66.9288 78.182 66.8802C78.3882 66.8315 78.5943 66.8193 78.8004 66.868C79.2005 67.0018 79.2975 67.2695 79.1035 67.671C78.958 67.8413 79.2127 68.109 79.3824 67.9387Z" fill="white"/>
<path d="M101.971 65.8338C101.583 66.1502 101.086 66.6247 100.625 67.2817C100.225 67.8535 99.9706 68.401 99.8129 68.8268C100.177 68.9972 100.953 69.423 101.11 70.1773C101.292 71.0047 100.613 71.759 99.7159 72.7323C99.1218 73.365 98.2124 74.2167 96.8787 74.9953C96.6483 74.9953 96.1876 74.971 95.6783 74.7033C95.0721 74.3748 94.7811 73.8882 94.6719 73.6935C94.1627 73.8395 93.5079 74.0828 92.7926 74.5087C92.1257 74.9102 91.6164 75.3482 91.2527 75.7132C91.4224 76.1025 91.9317 77.1732 93.0836 77.6355C93.5322 77.818 94.1021 77.9153 95.1569 77.7328C96.2239 77.5503 97.6668 77.1123 99.3764 75.9443C101.814 74.2775 103.026 72.3308 103.366 71.7468C104.214 70.299 104.821 69.2648 104.469 68.0847C104.02 66.6125 102.347 65.9677 101.971 65.8338Z" fill="#161616"/>
<path d="M94.6962 71.1142C95.351 70.1895 96.2482 69.496 97.291 69.0823C97.5092 68.9972 97.4122 68.6443 97.194 68.7295C96.0542 69.1797 95.0963 69.9218 94.381 70.9317C94.2355 71.1263 94.5507 71.3088 94.6962 71.1142Z" fill="#161616"/>
<path d="M92.6956 71.3332C93.6777 69.1797 95.5813 67.598 97.8851 67.0262C98.1154 66.9653 98.0184 66.6125 97.7881 66.6733C95.4116 67.2573 93.4109 68.912 92.3803 71.1385C92.2833 71.3697 92.5864 71.5522 92.6956 71.3332Z" fill="#161616"/>
<path d="M91.0103 71.7225C91.2891 70.0435 92.1985 68.5713 93.4959 67.4642C94.7326 66.4057 96.6363 65.262 98.3216 65.481C98.552 65.5053 98.552 65.1403 98.3216 65.116C96.5999 64.897 94.6841 66.0285 93.3868 67.0748C91.9803 68.2185 90.9618 69.8123 90.6586 71.613C90.6223 71.8563 90.9739 71.9537 91.0103 71.7225Z" fill="#161616"/>
<path d="M111.708 126.022C111.756 127.604 111.792 129.186 111.841 130.767C106.833 132.252 104.372 133.225 104.457 133.687C104.566 134.271 108.579 134.077 116.497 133.103C116.327 130.402 116.157 127.689 115.976 124.988C114.557 125.329 113.138 125.67 111.708 126.022Z" fill="#161616" stroke="#161616" stroke-width="2" stroke-miterlimit="10"/>
<path d="M127.555 94.8392C126.828 95.0582 126.985 95.1433 123.057 98.1728C118.898 101.373 116.824 102.979 115.381 103.794C114.545 104.268 113.866 104.609 113.029 105.388C111.647 106.689 110.944 108.174 110.398 109.622C108.701 114.135 108.446 118.455 108.398 120.377C108.349 122.153 108.385 124.66 108.81 127.665C110.119 127.981 111.21 128.066 111.986 128.078C113.332 128.103 115.248 128.127 117.237 127.105C117.819 126.801 118.267 126.485 118.546 126.278C118.195 124.197 117.928 121.581 118.061 118.576C118.17 116.155 118.498 114.026 118.886 112.262C119.528 111.775 120.51 111.082 121.784 110.388C123.251 109.597 124.718 109.013 128.767 107.821C133.618 106.397 133.787 106.556 134.503 105.947C136.358 104.39 137.691 101.251 136.649 98.5257C135.291 94.9365 130.514 93.9753 127.555 94.8392Z" fill="white"/>
<path d="M125.688 96.068C123.445 97.6375 121.214 99.2192 118.97 100.789C116.982 102.188 114.848 103.502 113.029 105.144C111.283 106.714 110.313 108.673 109.683 110.911C108.992 113.393 108.543 115.961 108.313 118.528C108.046 121.484 108.106 124.453 108.446 127.397C108.47 127.628 108.834 127.628 108.81 127.397C108.216 122.36 108.507 117.238 109.695 112.323C110.265 109.95 111.016 107.663 112.775 105.899C114.472 104.195 116.606 102.906 118.558 101.531C120.995 99.8153 123.432 98.0998 125.87 96.3843C126.064 96.2505 125.882 95.9342 125.688 96.068Z" fill="#161616"/>
<path d="M132.563 106.385C129.895 107.152 127.264 108.004 124.669 108.977C123.529 109.403 122.366 109.829 121.25 110.327C120.329 110.741 119.468 111.264 118.934 112.152C118.813 112.359 119.128 112.542 119.249 112.335C119.831 111.349 120.874 110.863 121.881 110.449C123.045 109.975 124.221 109.524 125.409 109.086C127.798 108.21 130.21 107.432 132.648 106.738C132.878 106.677 132.781 106.325 132.563 106.385Z" fill="#161616"/>
<path d="M119.092 110.327C117.831 115.498 117.6 120.876 118.413 126.132C118.449 126.363 118.801 126.266 118.764 126.035C117.964 120.839 118.195 115.522 119.443 110.425C119.492 110.193 119.14 110.096 119.092 110.327Z" fill="#161616"/>
<path d="M108.604 127.385C108.664 128.066 109.719 127.957 110.18 128.006C111.295 128.115 112.411 128.2 113.538 128.139C115.357 128.042 117.14 127.531 118.57 126.363C118.752 126.217 118.498 125.962 118.316 126.108C117.091 127.105 115.575 127.592 114.023 127.738C113.223 127.811 112.423 127.811 111.623 127.762C111.332 127.75 108.992 127.689 108.967 127.385C108.943 127.154 108.579 127.154 108.604 127.385Z" fill="#161616"/>
<path opacity="0.11" d="M132.454 102.285C130.78 101.433 128.865 103.611 124.136 105.777C120.268 107.553 119.31 107.115 117.794 108.04C115.127 109.658 112.763 114.269 114.46 127.665C114.836 127.665 115.272 127.628 115.757 127.531C117.031 127.263 117.94 126.655 118.486 126.229C118.061 123.565 117.807 120.207 118.219 116.374C118.389 114.756 118.655 113.272 118.971 111.933C120.122 111.264 121.917 110.303 124.221 109.403C129.81 107.2 133.278 107.334 133.836 105.363C134.127 104.256 133.448 102.784 132.454 102.285Z" fill="#666666"/>
<path opacity="0.12" d="M131.229 106.799C131.168 106.47 127.24 106.641 123.117 108.028C120.486 108.904 119.055 109.391 117.806 110.765C115.818 112.931 115.709 115.717 115.551 119.586C115.478 121.423 115.527 124.076 116.17 127.251C116.97 126.996 117.758 126.752 118.558 126.497C118.255 124.234 118.061 121.509 118.219 118.43C118.34 116.131 118.619 114.075 118.97 112.274C119.322 111.897 119.856 111.361 120.607 110.838C122.244 109.682 123.687 109.39 125.385 108.928C127.579 108.308 131.289 107.115 131.229 106.799Z" fill="#666666"/>
<path d="M151.562 117.737C154.206 116.873 156.449 116.386 158.086 116.094C160.426 115.681 160.971 115.766 161.408 116.094C162.16 116.654 162.002 117.481 162.281 122.64C162.378 124.331 162.427 124.757 162.087 125.28C160.935 127.117 157.104 127.032 156.813 126.229C156.704 125.913 157.067 125.329 158.886 124.149C158.825 122.993 158.765 121.837 158.692 120.681C156.619 121.18 154.545 121.691 152.484 122.19C152.193 120.718 151.878 119.233 151.562 117.737Z" fill="#161616" stroke="#161616" stroke-width="2" stroke-miterlimit="10"/>
<path d="M130.38 96.7858C129.58 98.6717 130.15 100.691 130.417 101.64C130.72 102.735 131.011 102.881 131.496 104.354C132.017 105.935 132.175 107.079 132.393 108.454C132.708 110.461 133.072 112.748 133.642 115.036C134.345 117.858 134.733 119.306 135.897 120.876C136.406 121.569 137.607 123.127 139.716 123.954C140.117 124.112 140.65 124.283 141.972 124.453C143.427 124.648 145.682 124.94 148.665 124.575C151.211 124.27 153.333 123.589 154.921 122.944C155.236 121.776 155.224 120.803 155.176 120.182C155.103 119.404 154.982 117.956 153.927 116.727C153.624 116.374 153.175 115.863 152.423 115.595C151.599 115.316 150.859 115.498 149.55 115.851C148.034 116.253 147.476 116.691 146.482 116.484C146.058 116.399 145.743 116.228 145.549 116.106C145.258 115.656 144.857 114.975 144.482 114.099C143.499 111.812 143.427 109.974 143.293 107.955C142.99 103.404 142.833 101.129 142.105 98.6108C141.341 95.9707 141.123 94.6445 139.983 93.8415C138.807 93.0142 137.473 93.075 136.649 93.1115C134.624 93.1967 131.496 94.17 130.38 96.7858Z" fill="white"/>
<path d="M140.565 94.681C142.554 98.8663 142.711 103.563 143.148 108.089C143.463 111.362 143.742 115.851 147.052 117.579C147.258 117.688 147.44 117.372 147.234 117.262C145.536 116.374 144.688 114.622 144.215 112.834C143.706 110.875 143.572 108.819 143.402 106.799C143.039 102.614 142.711 98.3432 140.893 94.4863C140.783 94.2795 140.468 94.462 140.565 94.681Z" fill="#161616"/>
<path d="M130.708 103.015C132.842 107.87 132.308 113.405 134.381 118.272C135.206 120.219 136.443 122.044 138.201 123.248C140.335 124.696 143.111 124.988 145.621 124.952C148.786 124.903 151.902 124.173 154.836 123.017C155.055 122.932 154.958 122.579 154.739 122.664C152.181 123.674 149.489 124.368 146.737 124.538C144.118 124.708 141.135 124.575 138.819 123.212C134.757 120.815 133.678 115.669 133.023 111.374C132.587 108.466 132.199 105.534 130.999 102.82C130.926 102.626 130.611 102.808 130.708 103.015Z" fill="#161616"/>
<path d="M145.318 116.167C147.513 117.457 150.023 114.975 152.339 115.729C153.624 116.155 154.254 117.542 154.606 118.759C154.994 120.073 155.042 121.448 154.776 122.786C154.727 123.017 155.079 123.115 155.127 122.883C155.37 121.618 155.358 120.316 155.067 119.063C154.788 117.919 154.303 116.617 153.345 115.863C152.46 115.157 151.284 115.145 150.217 115.352C148.786 115.632 146.907 116.69 145.5 115.863C145.294 115.741 145.112 116.046 145.318 116.167Z" fill="#161616"/>
<path opacity="0.11" d="M138.771 94.5228C136.734 96.5303 140.844 100.947 140.917 108.369C140.977 114.172 139.607 116.581 141.45 118.528C144.093 121.314 150.071 119.708 150.726 119.525C151.769 119.233 154 118.807 154.181 117.676C154.291 116.934 153.515 116.094 152.726 115.681C150.326 114.403 148.083 117.226 145.973 116.301C144.385 115.596 144.033 113.26 143.366 108.916C142.82 105.351 143.16 104.597 142.517 100.679C142.044 97.7957 141.438 94.1943 139.983 93.9875C139.401 93.8902 138.868 94.4133 138.771 94.5228Z" fill="#666666"/>
<path opacity="0.17" d="M142.069 99.2922C141.875 99.3043 141.863 101.64 141.838 104.524C141.778 112.712 142.238 114.452 143.293 115.985C143.73 116.617 144.554 117.785 146.058 118.442C149.38 119.915 153.794 117.98 153.806 116.751C153.806 116.131 152.678 115.668 152.496 115.595C151.344 115.133 150.459 115.583 148.119 115.985C147.149 116.155 146.325 116.24 145.743 116.289C145.306 115.741 144.7 114.89 144.215 113.746C143.281 111.593 143.354 109.841 143.293 107.979C143.16 103.38 142.311 99.28 142.069 99.2922Z" fill="#666666"/>
<path d="M97.0121 79.0103C97.0364 78.7305 97.679 78.5845 98.067 78.4993C99.6554 78.1465 101.026 78.4142 101.389 78.5602C102.068 78.8278 102.747 79.0955 103.438 79.3632C103.475 79.1563 103.584 78.7183 103.936 78.3898C104.566 77.818 105.463 78.037 105.706 78.11C106.021 78.1952 106.518 78.3898 107.367 79.3145C108.24 80.2635 108.361 80.7502 108.858 81.3707C110.01 82.8063 111.744 83.1835 112.617 83.366C113.381 83.5363 114.921 83.8648 116.655 83.1348C118.182 82.49 119.043 81.3585 119.419 80.8475C119.783 80.3487 119.904 80.0567 120.632 78.3898C122.111 74.9953 122.584 73.949 123.614 72.9027C124.172 72.3308 124.851 71.6617 125.554 71.8198C126.415 72.0145 126.779 73.365 126.937 73.9368C127.106 74.5695 127.325 75.774 126.828 77.8788C126.658 78.6088 126.076 80.7623 124.39 83.1348C123.687 84.1325 122.705 85.483 120.959 86.6267C120.195 87.1255 118.946 87.9285 117.14 88.1718C115.539 88.3908 114.315 88.0623 113.272 87.7703C112.12 87.454 110.204 86.7483 108.179 85.0815C106.882 85.1423 105.888 85.2275 105.197 85.3127C104.02 85.4465 103.523 85.556 102.99 85.2518C102.808 85.1423 102.541 84.9477 102.165 84.972C101.814 84.9963 101.692 85.191 101.389 85.2518C101.05 85.3248 100.492 85.264 100.177 84.8503C99.9221 84.5218 99.9464 84.1082 99.9585 83.9743C99.7524 83.7918 99.425 83.4512 99.2674 82.9402C99.1583 82.5873 99.1704 82.2953 99.1704 81.9668C99.1825 81.5775 99.1825 81.3828 99.2795 81.2247C99.5584 80.738 100.359 80.7623 100.48 80.7745C100.092 80.4825 99.7403 80.3243 99.522 80.2392C98.7703 79.935 98.3701 80.0323 97.679 79.6552C97.4001 79.4848 96.9879 79.2537 97.0121 79.0103Z" fill="white"/>
<path d="M125.664 71.6617C124.609 71.2602 123.821 72.1483 123.263 72.9392C122.426 74.1193 121.711 75.3847 121.105 76.6987C119.965 79.205 119.189 82.125 116.849 83.804C116.655 83.9378 116.837 84.2542 117.031 84.1203C118.922 82.7455 119.868 80.592 120.729 78.4872C121.25 77.2218 121.808 75.9808 122.487 74.8007C122.826 74.2288 123.178 73.657 123.566 73.1217C124.027 72.4768 124.645 71.6738 125.554 72.0145C125.785 72.0997 125.882 71.7468 125.664 71.6617Z" fill="#161616"/>
<path d="M104.457 79.5822C103.936 79.7525 103.729 79.1077 103.887 78.7548C104.008 78.475 104.324 78.329 104.59 78.2438C105.1 78.0978 105.682 78.1952 106.154 78.4263C106.943 78.8157 107.391 79.6065 107.876 80.3122C108.725 81.5532 109.853 82.5508 111.223 83.1592C113.951 84.3637 117.14 83.7188 119.237 81.6018C119.407 81.4315 119.14 81.176 118.983 81.3463C117.552 82.8063 115.527 83.585 113.49 83.3903C111.405 83.1957 109.513 81.979 108.301 80.2878C107.403 79.0103 106.276 77.2948 104.421 77.9153C103.899 78.0857 103.39 78.548 103.475 79.1442C103.548 79.6795 104.033 80.1053 104.566 79.9228C104.772 79.862 104.675 79.5092 104.457 79.5822Z" fill="#161616"/>
<path d="M103.196 79.0833C102.226 78.5967 101.207 78.2195 100.128 78.11C99.1825 78.0127 97.8609 78.0492 97.0849 78.694C96.3816 79.278 97.3031 79.6552 97.8003 79.862C98.94 80.3365 100.225 80.4825 101.329 81.0543C101.535 81.1638 101.717 80.8475 101.511 80.738C100.832 80.3852 100.104 80.2148 99.3765 80.008C98.9885 79.8985 98.6126 79.7768 98.2368 79.6308C98.0306 79.5578 97.6184 79.4727 97.4608 79.3023C97.1819 79.0103 97.5335 78.8278 97.8003 78.7305C99.4856 78.037 101.474 78.621 103.026 79.3997C103.22 79.497 103.402 79.1807 103.196 79.0833Z" fill="#161616"/>
<path d="M101.244 80.8232C100.722 80.5068 100.068 80.4703 99.5463 80.7988C99.1219 81.0543 98.7703 81.614 98.9643 82.1128C99.1826 82.6847 100.031 82.7455 100.528 82.8428C101.292 82.9767 102.02 82.9767 102.723 82.6238C102.929 82.5143 102.747 82.198 102.541 82.3075C101.753 82.709 100.88 82.563 100.043 82.3683C99.716 82.2953 99.7039 82.3075 99.4978 81.9547C99.231 81.7357 99.2432 81.5045 99.5099 81.2855C99.5827 81.2247 99.6554 81.176 99.7282 81.1152C100.14 80.8597 100.65 80.8962 101.062 81.1395C101.256 81.2612 101.438 80.9448 101.244 80.8232Z" fill="#161616"/>
<path d="M99.1583 82.3197C98.9158 82.9888 99.2311 83.6823 99.8495 84.0108C100.65 84.4367 101.559 84.1203 102.323 83.8162C102.541 83.731 102.444 83.3782 102.226 83.4633C101.717 83.6702 101.159 83.8892 100.601 83.8405C99.8737 83.7797 99.2311 83.1835 99.51 82.417C99.5827 82.198 99.2311 82.1007 99.1583 82.3197Z" fill="#161616"/>
<path d="M99.7281 83.8527C99.5098 84.534 100.055 85.1058 100.674 85.2883C101.583 85.5438 102.311 85.0328 102.965 84.461C103.147 84.3028 102.881 84.0473 102.711 84.2055C102.299 84.5583 101.874 84.9355 101.316 84.9842C100.759 85.0328 99.8372 84.6922 100.08 83.95C100.152 83.731 99.8008 83.6337 99.7281 83.8527Z" fill="#161616"/>
<path d="M101.838 81.468C102.202 81.5897 102.759 81.9182 102.468 82.3683C102.347 82.563 102.662 82.7455 102.784 82.5508C102.953 82.2832 102.941 81.9303 102.759 81.6627C102.577 81.3707 102.25 81.2125 101.923 81.1152C101.704 81.0422 101.607 81.395 101.838 81.468Z" fill="#161616"/>
<path d="M102.359 82.709C102.614 82.9888 102.505 83.4268 102.141 83.5363C101.923 83.5972 102.008 83.95 102.238 83.8892C102.881 83.7067 103.063 82.928 102.626 82.4413C102.456 82.2832 102.202 82.5387 102.359 82.709Z" fill="#161616"/>
<path d="M102.529 83.6093C102.771 83.7432 102.808 84.1082 102.614 84.2907C102.444 84.4488 102.699 84.7165 102.868 84.5462C103.232 84.1933 103.159 83.5363 102.711 83.293C102.517 83.1835 102.323 83.4998 102.529 83.6093Z" fill="#161616"/>
<path d="M102.953 79.3753C103.22 79.497 103.487 79.6308 103.754 79.7525C103.96 79.8498 104.154 79.5335 103.935 79.4362C103.669 79.3145 103.402 79.1807 103.135 79.059C102.929 78.9617 102.747 79.278 102.953 79.3753Z" fill="#161616"/>
<path d="M104.602 79.935C104.869 79.7038 105.233 79.6065 105.584 79.6917C105.815 79.7403 105.912 79.3875 105.681 79.3388C105.196 79.2293 104.724 79.351 104.348 79.6795C104.166 79.8377 104.42 80.0932 104.602 79.935Z" fill="#161616"/>
<path d="M104.809 80.373C104.469 81.3828 104.869 82.5022 105.779 83.0497C105.985 83.1713 106.167 82.855 105.96 82.7333C105.184 82.271 104.869 81.3098 105.16 80.4703C105.233 80.2392 104.881 80.1418 104.809 80.373Z" fill="#161616"/>
<path d="M102.25 85.0328C102.978 85.556 103.766 85.6655 104.627 85.4952C105.827 85.2762 106.979 85.1667 108.204 85.3005C108.434 85.3248 108.434 84.9598 108.204 84.9355C107.258 84.826 106.312 84.8382 105.366 84.9842C104.287 85.1545 103.402 85.41 102.432 84.7165C102.238 84.5827 102.056 84.899 102.25 85.0328Z" fill="#161616"/>
<path d="M107.888 85.1423C109.622 85.9697 111.223 87.0768 113.017 87.7582C114.666 88.3787 116.473 88.5003 118.195 88.0745C119.965 87.6365 121.396 86.5902 122.644 85.2883C123.942 83.95 125.106 82.4413 125.93 80.7502C126.9 78.7792 127.373 76.5892 127.131 74.3992C127.106 74.168 126.743 74.168 126.767 74.3992C127.034 76.8082 126.415 79.205 125.227 81.2977C124.124 83.2443 122.56 85.191 120.729 86.505C118.886 87.819 116.497 88.257 114.29 87.7582C112.035 87.2472 110.131 85.7993 108.058 84.8138C107.864 84.7287 107.682 85.045 107.888 85.1423Z" fill="#161616"/>
<path opacity="0.16" d="M126.149 73.073C125.676 73.0973 125.736 75.117 125.166 77.1853C124.33 80.1783 121.929 84.1082 118.401 85.3127C115.903 86.1643 113.381 85.4587 109.368 84.3272C108.094 83.9743 105.851 83.2322 102.747 83.0375C100.189 82.8793 99.5584 83.2443 99.5342 83.439C99.522 83.5607 99.7524 83.6458 99.8858 84.0352C99.9949 84.3637 99.8736 84.4732 99.9828 84.68C100.177 85.0572 100.759 85.1058 100.965 85.1302C101.474 85.1788 101.886 84.9963 102.105 84.8868C102.335 84.9963 102.699 85.1423 103.147 85.2397C104.02 85.4222 104.518 85.2518 105.621 85.1423C106.761 85.0328 107.512 84.9598 108.337 85.191C109.125 85.41 109.489 85.775 110.168 86.2373C110.374 86.3712 112.314 87.673 114.715 88.0745C115.466 88.1962 117.188 88.4638 119.104 87.7217C120.195 87.308 120.886 86.7362 121.674 86.0913C122.172 85.6777 124.39 83.7797 126.015 80.2392C126.731 78.694 127.313 77.3922 127.155 75.6767C127.022 74.4235 126.549 73.0487 126.149 73.073Z" fill="#666666"/>
<path opacity="0.17" d="M102.941 83.9743C103.523 83.6823 104.202 83.9257 104.469 84.023C105.985 84.5462 106.13 84.1812 108.422 84.5218C110.313 84.8017 110.386 85.3492 112.872 86.1522C115.26 86.9308 117.188 87.5513 119.092 86.943C121.796 86.0792 123.044 83.3417 123.141 83.4268C123.238 83.4998 122.147 86.1522 119.54 87.3932C117.176 88.5247 114.715 87.9528 114.011 87.7947C112.872 87.527 111.95 87.089 110.944 86.6023C109.768 86.0427 108.846 85.4587 108.179 85.0207C107.33 84.9842 106.664 85.0572 106.203 85.118C105.075 85.2883 104.602 85.5438 103.681 85.41C103.438 85.3735 102.432 85.2275 102.347 84.7652C102.299 84.461 102.626 84.1325 102.941 83.9743Z" fill="#666666"/>
<path d="M124.39 72.124C124.063 72.5255 123.639 73.1947 123.323 78.5115C123.154 81.4558 122.984 84.5462 123.238 89.0843C123.348 90.9337 123.554 93.4643 123.978 96.4573C125.336 97.236 127.81 98.3918 131.083 98.5865C136.333 98.9028 140.165 96.5182 141.45 95.6422C140.795 94.3403 139.898 92.3207 139.328 89.7413C138.625 86.578 138.965 85.1788 138.589 81.2977C138.092 76.1633 137.849 73.5962 136.297 72.0388C133.326 69.0458 126.803 69.1432 124.39 72.124Z" fill="#EC615B"/>
<path opacity="0.22" d="M130.999 69.934C131.859 71.2237 132.963 73.1338 133.836 75.6158C134.212 76.6987 136.079 82.271 134.721 89.4372C134.006 93.2453 132.611 96.3113 131.277 98.5743C132.211 98.6352 133.302 98.623 134.503 98.4648C137.692 98.0268 140.08 96.7007 141.499 95.7273C141.05 94.9 140.48 93.732 139.995 92.272C139.898 91.9557 139.425 90.5322 139.11 88.3178C138.892 86.8092 138.928 86.3103 138.783 83.8527C138.746 83.2808 138.601 80.957 138.286 78.2803C137.825 74.3627 137.473 73.511 136.891 72.7567C136.067 71.686 135.024 71.1142 134.563 70.8587C133.108 70.1043 131.75 69.9583 130.999 69.934Z" fill="#666666"/>
<path opacity="0.22" d="M138.298 79.0712C138.116 81.0422 137.873 83.074 137.582 85.1667C136.915 89.8873 136.03 94.2795 135.024 98.3067C135.848 98.1972 136.903 97.9782 138.055 97.528C139.559 96.944 140.686 96.1653 141.45 95.557C139.838 92.71 139.28 90.3253 139.074 88.622C138.868 86.9065 138.94 85.2518 138.54 81.2125C138.443 80.3122 138.358 79.57 138.298 79.0712Z" fill="#666666"/>
<path d="M119.443 57.6457C119.201 58.2418 119.213 58.9475 119.213 60.371C119.213 61.3808 119.225 62.7922 119.746 64.459C120.147 65.7487 120.535 67.0383 121.735 68.182C122.074 68.5105 123.542 69.9097 125.615 69.9097C126.015 69.9097 126.355 69.861 126.573 69.8123C126.67 70.1773 126.876 70.6883 127.264 71.2115C127.47 71.4792 127.676 71.686 127.858 71.8442C128.149 71.8442 128.889 71.7955 129.653 71.3088C130.38 70.8343 130.72 70.2138 130.841 69.9462C130.623 69.7272 130.053 69.0823 130.016 68.1455C130.004 67.89 130.041 67.671 130.077 67.4763C130.477 66.9653 130.901 66.2962 131.265 65.481C131.447 65.0795 131.58 64.7023 131.702 64.3495C131.884 64.3982 132.247 64.459 132.599 64.2887C132.975 64.094 133.108 63.7168 133.266 63.2545C133.496 62.5732 133.751 61.8067 133.436 61.1253C133.132 60.4805 132.66 60.6265 132.247 60.0303C131.617 59.1422 132.235 58.2418 131.981 57.2685C131.593 55.772 129.434 55.1272 128.598 54.8717C125.166 53.8497 120.51 54.9933 119.443 57.6457Z" fill="white"/>
<path d="M119.128 59.3977C119.431 59.4463 119.625 58.9718 120.098 58.4973C120.583 58.0228 121.395 57.524 122.85 57.3902C124.039 57.2685 125.227 57.1347 126.415 57.013C126.791 57.0373 127.652 57.1347 128.513 57.7308C129.204 58.2175 129.58 58.8015 129.762 59.1178C130.138 59.13 130.501 59.1543 130.877 59.1665C130.95 59.6167 131.035 60.0668 131.108 60.517C131.156 60.4683 131.811 59.8843 132.49 60.1033C133.035 60.2737 133.266 60.8577 133.363 61.1253C133.666 61.8675 133.46 62.4637 133.642 62.5123C133.86 62.5853 134.284 61.7823 134.333 61.6728C134.442 61.466 134.794 60.7482 134.891 59.6288C134.963 58.7163 135.012 58.108 134.66 57.5362C134.539 57.3415 134.418 57.2198 134.381 56.9765C134.321 56.5142 134.684 56.2587 134.891 55.8207C135 55.5895 135.024 55.3705 134.709 53.6915C134.369 51.8908 134.248 51.6475 134.066 51.5988C133.824 51.5502 133.605 51.8787 133.326 52.1585C132.841 52.6573 132.005 53.2048 130.453 53.4117C130.453 52.8642 130.38 52.4262 130.319 52.1098C130.21 51.6232 130.15 51.6232 129.762 50.4795C129.543 49.8347 129.495 49.567 129.349 49.5548C129.107 49.5305 129.022 50.151 128.452 50.37C128.198 50.4673 128.101 50.3822 127.761 50.4308C127.458 50.4673 127.046 50.6012 126.573 51.0027C126.573 51.0027 125.845 51.5015 124.633 52.122C123.287 52.8033 122.838 52.0612 121.444 52.6817C120.401 53.144 119.771 53.9713 119.504 54.3485C119.237 54.7257 118.485 55.8207 118.485 57.3293C118.461 58.1932 118.704 59.3368 119.128 59.3977Z" fill="#5222D0"/>
<path d="M119.14 59.8843C118.934 61.9527 119.274 64.0575 120.147 65.9433C120.886 67.5372 122.062 69.1188 123.76 69.7515C125.494 70.3963 127.482 69.9218 128.925 68.8268C130.392 67.7075 131.314 66.0407 131.859 64.3008C131.932 64.0818 131.58 63.9845 131.508 64.2035C130.986 65.8582 130.113 67.452 128.719 68.5227C127.276 69.6177 125.251 70.08 123.566 69.277C122.05 68.5592 121.032 67.0627 120.377 65.5662C119.589 63.7777 119.31 61.8188 119.504 59.8843C119.528 59.6532 119.164 59.6532 119.14 59.8843Z" fill="#161616"/>
<path d="M131.362 60.7968C131.532 60.0547 132.393 60.079 132.829 60.5535C133.205 60.9428 133.29 61.5147 133.302 62.0378C133.326 62.9138 133.011 64.532 131.762 64.1305C131.544 64.0575 131.447 64.4103 131.665 64.4833C133.436 65.0552 133.824 62.5853 133.605 61.393C133.472 60.6995 133.023 59.9573 132.259 59.86C131.677 59.787 131.144 60.152 131.011 60.7238C130.962 60.9185 131.314 61.0158 131.362 60.7968Z" fill="#161616"/>
<path d="M123.639 60.0303C123.36 60.6143 123.081 61.1862 122.814 61.7702C122.681 62.0743 122.535 62.3785 122.559 62.7313C122.62 63.4492 123.251 63.9237 123.905 64.0818C124.136 64.1427 124.233 63.7898 124.002 63.729C123.214 63.5343 122.729 62.9017 123.069 62.0987C123.335 61.466 123.651 60.8455 123.954 60.2128C124.051 60.006 123.736 59.8235 123.639 60.0303Z" fill="#161616"/>
<path d="M121.868 61.6242C121.796 61.539 121.747 61.4295 121.735 61.32C121.723 61.2713 121.723 61.2105 121.735 61.1618C121.735 61.1253 121.796 61.0158 121.796 60.9915C121.771 60.9915 121.759 61.0037 121.735 61.0037C121.747 61.0402 121.747 61.0767 121.747 61.1132C121.747 61.174 121.747 61.2348 121.747 61.2957C121.735 61.4538 121.699 61.5998 121.638 61.7458C121.735 61.7215 121.844 61.6972 121.941 61.6607C121.82 61.5512 121.771 61.4417 121.783 61.2713C121.808 61.0402 121.444 61.0402 121.42 61.2713C121.395 61.5147 121.492 61.758 121.686 61.9162C121.796 62.0135 121.941 61.9648 121.99 61.831C122.099 61.5512 122.147 61.2348 122.099 60.9428C122.062 60.736 121.893 60.5292 121.674 60.6265C121.468 60.7117 121.383 61.0037 121.383 61.2227C121.383 61.466 121.468 61.6972 121.638 61.8797C121.771 62.0622 122.026 61.7945 121.868 61.6242Z" fill="#161616"/>
<path d="M126.5 61.4417C126.464 61.3443 126.439 61.2592 126.439 61.1618C126.439 61.1132 126.452 61.0645 126.464 61.0158C126.464 61.0037 126.476 60.9793 126.476 60.9672C126.5 60.9307 126.488 60.9307 126.427 60.9672C126.427 60.9793 126.452 61.0402 126.452 61.0645C126.452 61.1132 126.452 61.1618 126.439 61.2105C126.415 61.32 126.367 61.4173 126.306 61.5025C126.403 61.5147 126.5 61.5268 126.597 61.539C126.452 61.3322 126.464 61.0888 126.621 60.882C126.524 60.8942 126.427 60.9063 126.33 60.9185C126.452 61.0645 126.367 61.2835 126.221 61.3565C126.306 61.393 126.403 61.4295 126.488 61.466C126.452 61.3687 126.427 61.2835 126.415 61.174C126.415 61.1132 126.427 61.0523 126.427 60.9915C126.427 60.9672 126.439 60.955 126.439 60.9307C126.403 60.882 126.391 60.8698 126.415 60.9063C126.452 61.0037 126.476 61.0767 126.464 61.1862C126.464 61.2348 126.439 61.3078 126.439 61.3443C126.439 61.3687 126.427 61.3808 126.427 61.4052C126.512 61.393 126.524 61.3687 126.476 61.32C126.342 61.1253 126.027 61.3078 126.161 61.5025C126.294 61.6972 126.585 61.8675 126.743 61.5877C126.864 61.3565 126.864 60.955 126.743 60.736C126.609 60.5048 126.294 60.4318 126.136 60.6873C125.991 60.9307 126.027 61.2957 126.124 61.5512C126.173 61.6607 126.282 61.7215 126.391 61.6607C126.767 61.466 126.84 60.9672 126.573 60.6508C126.488 60.5535 126.355 60.6022 126.282 60.6873C126.064 60.9793 126.051 61.4052 126.258 61.7093C126.318 61.7945 126.464 61.8432 126.549 61.7458C126.767 61.466 126.997 60.809 126.561 60.6022C126.367 60.517 126.197 60.6387 126.136 60.8212C126.051 61.0523 126.051 61.3078 126.148 61.5268C126.245 61.7458 126.597 61.6607 126.5 61.4417Z" fill="#161616"/>
<path d="M122.62 59.3977C121.99 58.984 121.165 59.1787 120.765 59.7992C120.644 59.9938 120.959 60.1763 121.08 59.9817C121.371 59.5193 121.977 59.4098 122.438 59.7018C122.632 59.8357 122.814 59.5193 122.62 59.3977Z" fill="#161616"/>
<path d="M125.967 59.495C126.524 59.0205 127.385 59.1665 127.64 59.8843C127.713 60.1033 128.064 60.006 127.991 59.787C127.64 58.8015 126.476 58.5703 125.712 59.2395C125.542 59.3855 125.797 59.641 125.967 59.495Z" fill="#161616"/>
<path d="M126.415 69.9462C126.609 70.664 126.985 71.3088 127.531 71.8198C127.701 71.978 127.955 71.7225 127.785 71.5643C127.288 71.0898 126.937 70.518 126.767 69.8488C126.694 69.6177 126.342 69.715 126.415 69.9462Z" fill="#161616"/>
<path d="M129.762 67.6953C129.871 68.5105 130.15 69.2527 130.623 69.934C130.756 70.1287 131.071 69.9462 130.938 69.7515C130.501 69.131 130.222 68.4497 130.125 67.6953C130.101 67.4763 129.737 67.4642 129.762 67.6953Z" fill="#161616"/>
<path d="M127.555 71.8807C128.864 72.3308 130.368 71.2723 130.853 70.0678C130.938 69.8488 130.586 69.7515 130.501 69.9705C130.089 70.9925 128.743 71.905 127.652 71.5278C127.434 71.4548 127.337 71.8077 127.555 71.8807Z" fill="#161616"/>
<path d="M126.634 70.1408C127.507 69.9948 128.283 69.5812 128.901 68.9485C129.059 68.7782 128.804 68.5227 128.646 68.693C128.064 69.2892 127.349 69.6542 126.537 69.8002C126.306 69.8367 126.403 70.1773 126.634 70.1408Z" fill="#161616"/>
<path d="M126.84 70.3842C127.858 70.0922 129.01 69.2892 129.471 68.3158C129.568 68.109 129.252 67.9143 129.155 68.1333C128.731 69.0215 127.676 69.7758 126.73 70.0435C126.512 70.1043 126.609 70.445 126.84 70.3842Z" fill="#161616"/>
<path d="M119.201 58.4973C118.51 57.6822 118.789 56.2222 119.128 55.2975C119.54 54.166 120.353 53.3143 121.529 52.9858C122.559 52.6938 123.663 52.7303 124.669 52.341C125.785 51.903 126.597 50.6985 127.882 50.7837C128.113 50.7958 128.113 50.4308 127.882 50.4187C126.415 50.3213 125.518 51.7327 124.196 52.1098C122.923 52.487 121.505 52.3532 120.353 53.0953C119.443 53.6793 118.873 54.6648 118.619 55.699C118.364 56.6845 118.231 57.9377 118.934 58.7528C119.092 58.9353 119.358 58.6798 119.201 58.4973Z" fill="#5222D0"/>
<path d="M123.081 57.1225C122.984 56.2343 123.178 55.3583 123.699 54.6283C124.281 53.8132 125.166 53.4482 126.039 53.0345C126.767 52.6938 127.434 52.268 127.955 51.6475C128.464 51.0635 128.719 50.1997 129.362 49.7495C129.277 49.7252 129.192 49.7008 129.107 49.6887C129.713 51.1122 130.926 52.852 129.834 54.3607C129.701 54.5553 130.016 54.7378 130.15 54.5432C131.326 52.9128 130.077 51.0513 129.422 49.5062C129.386 49.421 129.252 49.3845 129.168 49.4453C128.464 49.9198 128.222 50.7715 127.676 51.392C126.961 52.2315 126.027 52.6087 125.069 53.071C123.493 53.8375 122.487 55.3218 122.693 57.1225C122.741 57.3537 123.117 57.3537 123.081 57.1225Z" fill="#5222D0"/>
<path d="M126.512 56.9522C127.288 55.5043 128.561 54.3728 130.113 53.8253C130.841 53.5698 131.605 53.4238 132.296 53.071C132.963 52.7425 133.533 52.2802 134.03 51.7327C133.933 51.7205 133.836 51.7083 133.739 51.6962C134.187 52.6573 134.612 53.7402 134.697 54.7987C134.781 55.9423 134.151 56.8183 133.46 57.6578C133.314 57.8403 133.569 58.0958 133.714 57.9133C134.406 57.0617 135.085 56.1613 135.06 55.0177C135.036 53.8132 134.539 52.5843 134.042 51.5137C133.993 51.4042 133.836 51.392 133.751 51.4772C133.12 52.1585 132.369 52.6938 131.496 53.0102C130.756 53.2778 129.98 53.4238 129.265 53.7767C127.943 54.4215 126.864 55.48 126.173 56.7697C126.088 56.9765 126.403 57.159 126.512 56.9522Z" fill="#5222D0"/>
<path d="M134.151 57.0252C135.024 58.7285 134.866 60.7482 133.751 62.2933C133.617 62.488 133.933 62.6705 134.066 62.4758C135.266 60.8212 135.4 58.6555 134.466 56.8427C134.357 56.6358 134.042 56.8183 134.151 57.0252Z" fill="#5222D0"/>
<path opacity="0.14" d="M129.641 58.9962C129.677 59.5923 129.701 60.4562 129.641 61.4903C129.519 63.3397 129.422 64.9335 128.61 66.43C127.591 68.2915 125.845 69.2648 124.681 69.7515C125.239 69.788 126.136 69.7637 127.167 69.423C128.016 69.1432 128.658 68.7417 129.071 68.4253C129.301 69.3378 129.544 70.2503 129.774 71.1628C130.138 70.7248 130.489 70.2747 130.853 69.8367C130.538 69.204 130.223 68.5592 129.907 67.9265C130.162 67.5128 130.404 67.0748 130.647 66.6003C131.083 65.773 131.435 64.9822 131.726 64.2278C131.884 64.2887 132.344 64.4468 132.757 64.2278C133.217 63.9845 133.327 63.437 133.424 62.9382C133.521 62.415 133.787 61.0158 132.963 60.4075C132.623 60.152 132.029 59.9817 131.556 60.2372C131.302 60.3832 131.168 60.6022 131.096 60.736C131.035 60.2372 130.986 59.7383 130.926 59.2395C130.501 59.1665 130.065 59.0813 129.641 58.9962Z" fill="#666666"/>
<path opacity="0.2" d="M126.864 56.9278C127.543 56.1857 128.355 55.1272 129.059 53.728C129.556 52.7303 129.883 51.8057 130.089 51.027C130.635 52.0125 130.586 52.8033 130.55 53.144C130.344 54.7013 128.937 55.6747 128.149 56.2222C127.652 56.5628 127.191 56.7818 126.864 56.9278Z" fill="#212121"/>
<path opacity="0.16" d="M129.349 58.2905C130.041 58.0472 130.853 57.6943 131.714 57.1712C133.278 56.21 134.333 55.0663 134.988 54.2268C135.072 54.7378 135.157 55.7477 134.612 56.6723C133.739 58.181 131.593 58.911 129.349 58.2905Z" fill="#212121"/>
<path opacity="0.22" d="M121.408 57.6335C121.383 57.1225 121.42 56.3925 121.65 55.553C122.196 53.6307 123.554 52.195 123.76 52.3167C123.93 52.414 123.517 53.5577 121.408 57.6335Z" fill="#212121"/>
<path d="M122.002 65.4688C123.808 65.554 125.566 65.189 127.191 64.386C127.349 64.313 127.215 64.0697 127.058 64.1548C125.482 64.9335 123.76 65.2863 122.014 65.2012C121.82 65.189 121.832 65.4567 122.002 65.4688Z" fill="#161616"/>
<path d="M122.184 65.5175C122.426 65.9555 122.596 66.43 122.693 66.9167C122.729 67.087 122.984 67.014 122.96 66.8437C122.863 66.3327 122.681 65.8338 122.426 65.3715C122.341 65.2255 122.099 65.3715 122.184 65.5175Z" fill="#161616"/>
<path d="M122.717 66.9288C123.445 67.6345 124.621 67.2817 125.397 66.8315C126.33 66.3083 127.009 65.4323 127.24 64.386C127.276 64.2157 127.009 64.1427 126.973 64.313C126.779 65.1768 126.282 65.9068 125.554 66.4178C124.863 66.8923 123.614 67.4277 122.911 66.7342C122.79 66.6125 122.596 66.8072 122.717 66.9288Z" fill="#161616"/>
<path d="M122.547 66.0163C123.372 66.2353 124.318 65.992 125.106 65.7487C125.87 65.5175 126.573 65.1403 127.106 64.532C127.228 64.3982 127.034 64.2035 126.912 64.3373C126.403 64.9092 125.76 65.262 125.033 65.481C124.293 65.7 123.384 65.9555 122.62 65.7487C122.45 65.7122 122.378 65.9798 122.547 66.0163Z" fill="#161616"/>
<path d="M122.669 66.1502C122.766 66.3813 122.863 66.6125 122.96 66.8437C123.02 66.9897 123.263 66.8802 123.214 66.7342C123.129 66.5152 123.069 66.3083 123.02 66.0772C122.96 66.138 122.911 66.1867 122.851 66.2475C123.142 66.2962 123.433 66.3205 123.736 66.3205C123.881 66.3205 123.93 66.0772 123.772 66.0528C123.493 66.0042 123.275 66.0163 122.996 66.1015C122.911 66.1258 122.863 66.2232 122.911 66.3083C122.984 66.4178 123.069 66.5395 123.142 66.649C123.239 66.795 123.457 66.6733 123.372 66.5152C123.336 66.4057 123.299 66.2962 123.263 66.1988C123.178 66.2353 123.093 66.2718 123.008 66.3083C123.129 66.4665 123.178 66.6368 123.129 66.8193C123.214 66.795 123.299 66.7707 123.384 66.7463C123.214 66.4665 123.069 66.795 123.032 66.8802C122.996 66.9897 123.142 67.1113 123.239 67.0383C124.233 66.284 125.397 65.9068 126.573 65.5418C126.743 65.4932 126.67 65.2255 126.5 65.2742C125.3 65.6392 124.112 66.0285 123.105 66.795C123.178 66.8437 123.239 66.8923 123.311 66.9532C123.36 66.8437 123.505 66.8193 123.53 66.649C123.554 66.503 123.493 66.284 123.336 66.2353C122.899 66.0893 123.057 66.7098 123.166 66.8802C123.239 67.0018 123.408 66.941 123.42 66.8072C123.445 66.5517 123.396 66.3692 123.263 66.1623C123.178 66.0407 122.972 66.1137 123.008 66.2718C123.057 66.4787 123.057 66.4665 123.142 66.6612C123.214 66.6125 123.299 66.5638 123.372 66.5273C123.299 66.4178 123.214 66.2962 123.142 66.1867C123.117 66.2597 123.093 66.3205 123.057 66.3935C123.263 66.3083 123.469 66.2962 123.687 66.3448C123.699 66.2597 123.711 66.1623 123.724 66.0772C123.445 66.0772 123.202 66.065 122.911 66.0163C122.802 65.992 122.717 66.0772 122.741 66.1867C122.79 66.4178 122.851 66.6247 122.935 66.8437C123.02 66.8072 123.105 66.7707 123.19 66.7342C123.093 66.503 122.996 66.2718 122.899 66.0407C122.838 65.846 122.596 65.992 122.669 66.1502Z" fill="#161616"/>
<path d="M123.445 66.5882C123.869 66.3327 124.305 66.138 124.778 65.9677C124.742 65.8825 124.706 65.7973 124.669 65.7122C124.245 65.9068 123.82 66.1015 123.408 66.284C123.275 66.3448 123.372 66.5882 123.517 66.5395C124.657 66.0893 125.785 65.627 126.815 64.9457C126.743 64.897 126.682 64.8483 126.609 64.7875C126.452 65.2133 125.748 65.262 125.385 65.3958C125.081 65.5053 124.79 65.6513 124.487 65.7608C124.063 65.9068 123.566 65.8825 123.238 66.2475C123.117 66.3813 123.311 66.576 123.432 66.4422C123.699 66.138 124.196 66.1502 124.56 66.0285C124.924 65.9068 125.275 65.7243 125.651 65.6027C126.161 65.4445 126.67 65.4323 126.876 64.8727C126.912 64.7632 126.767 64.6537 126.67 64.7145C125.663 65.3715 124.548 65.8338 123.432 66.2718C123.469 66.357 123.505 66.4422 123.542 66.5273C123.966 66.3327 124.39 66.138 124.803 65.9555C124.948 65.8947 124.839 65.6513 124.693 65.7C124.208 65.8703 123.748 66.0893 123.299 66.3448C123.154 66.4422 123.299 66.6855 123.445 66.5882Z" fill="#161616"/>
<path d="M126.718 65.2498C126.718 65.2377 126.706 65.2255 126.706 65.2133C126.706 65.2012 126.706 65.2133 126.706 65.2377C126.694 65.2498 126.67 65.2742 126.658 65.2863H126.67C126.633 65.2863 126.597 65.2985 126.561 65.2985C126.5 65.2863 126.5 65.1768 126.488 65.2498C126.488 65.2742 126.488 65.2863 126.5 65.3107C126.512 65.3593 126.536 65.3837 126.585 65.4202C126.646 65.4688 126.743 65.4323 126.767 65.3715C126.803 65.2985 126.779 65.2255 126.718 65.189C126.718 65.189 126.706 65.189 126.706 65.1768C126.718 65.189 126.743 65.2133 126.755 65.2255C126.767 65.262 126.767 65.262 126.767 65.2377C126.767 65.2255 126.767 65.2133 126.767 65.2133C126.767 65.1768 126.755 65.1403 126.743 65.116C126.706 65.0673 126.658 65.0308 126.597 65.0308C126.439 65.0308 126.415 65.2133 126.464 65.3228C126.488 65.3958 126.549 65.4445 126.633 65.4202C126.694 65.3958 126.755 65.3107 126.718 65.2498Z" fill="#161616"/>
<path d="M126.743 64.1427C126.973 64.24 127.167 64.3982 127.3 64.6172C127.385 64.7632 127.628 64.6293 127.531 64.4833C127.361 64.2035 127.118 63.9967 126.815 63.8872C126.646 63.8142 126.573 64.0818 126.743 64.1427Z" fill="#161616"/>
<path d="M123.433 67.1235C124.39 66.4422 125.445 65.9677 126.585 65.7122C126.755 65.6757 126.682 65.408 126.512 65.4445C125.336 65.7 124.269 66.1867 123.287 66.8802C123.154 66.9897 123.287 67.233 123.433 67.1235Z" fill="#161616"/>
<path d="M123.19 66.9045C124.378 66.8437 125.482 66.4787 126.464 65.8095C126.609 65.7122 126.476 65.4688 126.33 65.5783C125.385 66.2232 124.33 66.5882 123.19 66.6368C123.008 66.649 123.008 66.9167 123.19 66.9045Z" fill="#161616"/>
<path d="M124.293 66.6003C124.96 66.4543 125.579 66.1988 126.161 65.8338C126.306 65.7365 126.173 65.5053 126.027 65.6027C125.47 65.9555 124.875 66.1988 124.233 66.3448C124.051 66.3692 124.124 66.6368 124.293 66.6003Z" fill="#161616"/>
<path d="M123.457 67.0748C124.427 67.0505 125.324 66.7707 126.124 66.2232C126.27 66.1258 126.136 65.8825 125.991 65.992C125.227 66.5152 124.378 66.7828 123.457 66.8072C123.287 66.8072 123.287 67.087 123.457 67.0748Z" fill="#161616"/>
<path d="M123.457 67.0505C123.445 67.2573 123.639 67.2817 123.796 67.2573C124.16 67.2087 124.512 67.1235 124.863 67.0383C125.033 66.9897 124.96 66.7342 124.79 66.7707C124.609 66.8193 124.427 66.8558 124.233 66.8923C124.148 66.9045 123.736 66.9288 123.723 67.0383C123.748 66.8802 123.469 66.8802 123.457 67.0505Z" fill="#161616"/>
<path d="M125.773 68.474C125.894 68.1333 126.985 68.2063 127.931 68.328C127.931 68.1455 127.967 67.8778 128.076 67.5858C128.161 67.3547 128.295 67.1235 128.78 66.5882C129.301 66.0163 129.568 65.7365 129.907 65.5297C130.162 65.3715 130.586 65.1647 131.18 65.0673C131.423 65.1525 131.678 65.2377 131.92 65.3107C131.993 65.0795 132.138 64.6415 132.417 63.7898C132.599 63.218 132.708 62.926 132.951 62.8287C133.193 62.7435 133.521 62.8287 133.69 63.0355C133.933 63.3397 133.715 63.7777 133.581 64.5198C133.508 64.9457 133.569 64.8727 133.545 66.4665C133.521 68.0968 133.46 68.0847 133.472 68.766C133.484 69.3987 133.569 70.299 133.86 71.3818C134.127 71.2602 134.551 71.1263 135.06 71.1385C136.249 71.1507 137.085 71.9293 137.704 72.5255C138.916 73.6813 139.438 74.9588 139.789 75.8592C140.468 77.599 140.553 79.0468 140.565 79.6795C140.577 80.665 140.602 81.5897 140.104 82.6603C139.947 83.001 139.51 83.9135 138.516 84.607C138.104 84.899 137.328 85.4343 136.321 85.3492C135.739 85.3005 135.218 85.0572 134.66 84.607C132.793 83.0862 131.932 80.3243 131.665 79.3632C131.156 77.6112 130.598 75.0683 130.501 71.8928C130.235 71.8807 129.919 71.8198 129.58 71.686C128.331 71.1628 127.846 69.9097 127.749 69.5933C127.494 69.6055 126.585 69.5933 126.015 68.9607C125.894 68.8147 125.724 68.6322 125.773 68.474Z" fill="white"/>
<path d="M127.458 69.3257C126.815 69.277 126.076 69.0337 125.906 68.328C125.87 68.401 125.821 68.474 125.785 68.547C126.718 68.3523 127.652 68.6322 128.586 68.4983C128.816 68.4618 128.719 68.109 128.489 68.1455C127.555 68.2793 126.621 67.9995 125.688 68.1942C125.591 68.2185 125.542 68.328 125.566 68.4132C125.773 69.2892 126.658 69.6177 127.47 69.6785C127.7 69.7028 127.7 69.3378 127.458 69.3257Z" fill="#161616"/>
<path d="M128.149 68.0238C128.004 67.16 129.325 67.2087 129.822 67.3425C130.053 67.4033 130.15 67.0505 129.919 66.9897C129.107 66.7707 127.603 66.9288 127.797 68.109C127.834 68.3523 128.186 68.255 128.149 68.0238Z" fill="#161616"/>
<path d="M128.671 67.1843C128.78 66.7585 129.01 66.3692 129.422 66.1745C129.907 65.9555 130.392 66.1745 130.841 66.3692C131.047 66.4665 131.241 66.1502 131.023 66.0528C130.465 65.7973 129.871 65.554 129.277 65.8338C128.768 66.065 128.452 66.5517 128.319 67.087C128.27 67.3182 128.622 67.4155 128.671 67.1843Z" fill="#161616"/>
<path d="M129.944 65.7243C129.919 65.7 130.332 65.3593 130.392 65.3228C130.562 65.2377 130.756 65.189 130.95 65.189C131.423 65.189 131.847 65.4202 132.223 65.6635C132.417 65.7852 132.599 65.481 132.405 65.3472C131.799 64.9578 131.059 64.6537 130.344 64.9457C130.041 65.0673 129.313 65.6148 129.677 65.992C129.847 66.1502 130.101 65.8947 129.944 65.7243Z" fill="#161616"/>
<path d="M133.545 68.8025C133.69 67.7683 133.739 66.7463 133.666 65.7C133.63 65.1038 133.69 64.6415 133.836 64.0575C133.909 63.7533 133.969 63.437 133.884 63.1328C133.751 62.7192 133.29 62.3785 132.854 62.5975C132.575 62.7435 132.502 63.072 132.405 63.3518C132.223 63.875 132.053 64.4103 131.884 64.9335C131.811 65.1525 132.163 65.2498 132.235 65.0308C132.332 64.7267 132.429 64.4225 132.538 64.1305C132.599 63.948 132.696 63.3397 132.842 63.2302C133.448 63.1572 133.69 63.3275 133.545 63.7655C133.508 63.9115 133.472 64.0453 133.424 64.1913C133.363 64.4225 133.302 64.6415 133.278 64.8727C133.23 65.4567 133.339 66.065 133.339 66.6612C133.339 67.3547 133.29 68.036 133.193 68.7173C133.169 68.9363 133.521 69.0337 133.545 68.8025Z" fill="#161616"/>
<path d="M127.264 69.715C127.895 69.7637 128.052 70.4207 128.343 70.8587C128.489 71.0898 128.671 71.2967 128.889 71.467C129.313 71.8077 129.81 71.9902 130.356 72.0388C130.586 72.0632 130.586 71.6982 130.356 71.6738C129.434 71.5887 128.852 71.0533 128.428 70.2747C128.161 69.788 127.846 69.3987 127.264 69.3622C127.022 69.3378 127.034 69.7028 127.264 69.715Z" fill="#161616"/>
<path d="M130.295 71.8807C130.671 73.1825 130.708 74.5208 130.817 75.8592C130.914 76.9907 131.096 78.1222 131.411 79.205C132.029 81.2977 133.096 83.2322 134.636 84.7895C134.806 84.9598 135.06 84.6922 134.891 84.534C133.302 82.928 132.223 80.9083 131.653 78.7305C131.047 76.4432 131.302 74.0463 130.647 71.7833C130.574 71.5643 130.223 71.6617 130.295 71.8807Z" fill="#161616"/>
<path d="M133.193 68.6565C133.375 70.6883 133.969 72.6715 134.963 74.4478C135.933 76.1755 137.425 77.672 137.764 79.6917C137.801 79.9228 138.152 79.8255 138.116 79.5943C137.813 77.7572 136.564 76.358 135.606 74.825C134.454 72.9635 133.763 70.8465 133.557 68.6687C133.533 68.4253 133.169 68.4253 133.193 68.6565Z" fill="#161616"/>
<path d="M134.03 71.4792C135.836 70.8952 137.619 72.3552 138.565 73.7665C139.559 75.2508 140.007 77.0758 140.214 78.84C140.408 80.5677 140.274 82.4535 139.122 83.8405C138.055 85.1302 136.079 85.6412 134.733 84.4732C134.551 84.315 134.297 84.5827 134.478 84.7287C135.752 85.8358 137.631 85.6777 138.88 84.607C140.408 83.3052 140.783 81.1882 140.626 79.278C140.456 77.1975 139.935 74.971 138.674 73.2677C137.619 71.8563 135.776 70.5302 133.945 71.1142C133.715 71.1993 133.799 71.5522 134.03 71.4792Z" fill="#161616"/>
<path opacity="0.15" d="M133.242 63.2545C132.599 63.4978 132.647 65.1525 132.696 66.3448C132.866 69.8853 132.951 71.6617 133.642 74.387C134.636 78.2682 135.545 79.278 136.042 79.7525C136.758 80.4338 138.128 81.4193 138.71 81.03C139.631 80.4095 138.164 76.7108 137.801 75.8105C136.576 72.7445 136.309 71.7225 135.4 71.4062C134.854 71.2237 134.321 71.2967 133.945 71.4062C133.423 70.2868 133.339 69.3865 133.351 68.766C133.363 68.2428 133.448 68.2428 133.484 67.452C133.557 66.0163 133.302 65.9312 133.436 64.9943C133.569 64.0818 133.921 63.5343 133.666 63.3153C133.581 63.1937 133.375 63.2058 133.242 63.2545Z" fill="#666666"/>
<path opacity="0.15" d="M134.284 72.0267C135.145 72.8662 135.739 73.6692 136.14 74.3018C137.122 75.8227 137.534 77.1853 137.679 77.7085C137.886 78.4507 137.983 79.0955 138.043 79.57C137.837 78.9373 137.449 77.9883 136.77 76.9298C136.224 76.0782 135.873 75.7862 135.412 75.0197C135.036 74.387 134.563 73.4137 134.284 72.0267Z" fill="#666666"/>
</svg>
