<svg width="194" height="146" viewBox="0 0 194 146" fill="none" xmlns="http://www.w3.org/2000/svg">
<path d="M9.54236 114.403C17.9692 110.631 27.5359 111.118 36.375 112.992C45.7234 114.975 54.7201 118.43 64.1534 120.036C69.3792 120.924 74.7142 121.241 79.9765 120.413C80.2069 120.377 80.1099 120.024 79.8795 120.061C70.1067 121.581 60.334 119.148 50.9856 116.496C42.0374 113.953 32.98 111.13 23.571 111.203C18.6967 111.24 13.8346 112.091 9.36048 114.087C9.14223 114.184 9.32411 114.5 9.54236 114.403Z" fill="#E8E8E8"/>
<path d="M56.7329 117.542C68.1546 117.773 79.2126 114.598 90.3798 112.712C93.6414 112.165 96.9273 111.727 100.237 111.508C100.468 111.495 100.468 111.13 100.237 111.143C88.8035 111.897 77.7819 115.328 66.4329 116.666C63.2198 117.043 59.9824 117.25 56.745 117.189C56.4904 117.177 56.4904 117.542 56.7329 117.542Z" fill="#E8E8E8"/>
<path d="M110.119 113.454C114.181 112.578 118.388 112.432 122.499 113.065C126.282 113.649 129.907 114.902 133.484 116.24C137.012 117.554 140.517 118.954 144.178 119.89C147.961 120.852 151.805 121.095 155.709 121.095C160.317 121.095 164.961 120.912 169.483 121.934C169.714 121.983 169.811 121.63 169.58 121.581C161.59 119.781 153.308 121.606 145.318 119.781C137.861 118.078 131.047 114.245 123.505 112.87C119.043 112.055 114.46 112.152 110.034 113.101C109.792 113.15 109.889 113.503 110.119 113.454Z" fill="#E8E8E8"/>
<path d="M43.8925 66.6733C42.8498 66.357 40.8006 65.4932 41.5645 64.0332C42.1101 62.9868 43.7349 62.9017 44.7413 62.9382C48.1363 63.0355 51.5313 63.3275 54.9263 63.0477C58.1151 62.78 61.1585 61.8675 64.2625 61.1375C67.415 60.3832 70.7494 59.8357 73.9261 60.7603C75.3205 61.1618 76.6179 61.831 77.988 62.2933C78.6428 62.5123 79.3218 62.6827 80.0129 62.7557C80.8374 62.8408 81.6619 62.7192 82.4743 62.6827C83.3109 62.6462 84.1718 62.6705 84.8871 63.1693C85.5419 63.6195 86.0875 64.4712 85.6631 65.262C85.0569 66.4057 83.2866 66.0893 82.2681 65.8703C79.249 65.2377 76.2056 65.043 73.138 65.4567C71.5133 65.6757 69.9249 66.0772 68.3729 66.576C66.6996 67.1113 65.0749 67.5858 63.2925 67.3425C61.6314 67.1113 60.043 66.576 58.3576 66.5152C56.6723 66.4422 54.999 66.6612 53.3379 66.8802C50.1126 67.3182 46.6691 67.8778 43.65 66.3083C43.4439 66.1988 43.262 66.5152 43.4681 66.6247C46.2933 68.0968 49.4821 67.7562 52.5376 67.3547C54.1381 67.1357 55.7508 66.9045 57.3755 66.868C59.1579 66.8315 60.819 67.2452 62.5529 67.5858C64.3231 67.9265 65.9236 67.744 67.6454 67.2087C69.355 66.6733 71.0404 66.1502 72.8106 65.8825C74.6415 65.6027 76.4966 65.5297 78.3396 65.6635C79.9765 65.773 81.5406 66.211 83.1533 66.3935C84.1111 66.503 85.3358 66.4665 85.9299 65.5662C86.6089 64.532 85.8814 63.3275 84.9478 62.7557C83.5291 61.8918 81.771 62.5002 80.2311 62.4028C78.5336 62.2933 76.9695 61.5025 75.4054 60.8942C72.1559 59.6288 68.8336 59.787 65.475 60.5048C61.9224 61.2592 58.4668 62.415 54.8293 62.707C52.7316 62.8773 50.6098 62.8408 48.5121 62.7557C47.4209 62.707 46.3175 62.6583 45.2263 62.6097C44.5473 62.5853 43.8804 62.5732 43.2135 62.707C42.1829 62.9138 41.0068 63.5222 41.0795 64.751C41.1644 66.1015 42.7164 66.722 43.8076 67.0505C44.0138 67.0992 44.1108 66.7463 43.8925 66.6733Z" fill="#E8E8E8"/>
<path d="M133.375 21.7905C132.332 21.6445 130.623 21.2673 130.319 20.075C129.883 18.4203 132.235 17.8972 133.375 17.6903C136.709 17.1185 140.129 17.6417 143.487 17.6417C150.144 17.6295 156.703 16.3642 163.324 15.8897C166.634 15.6463 169.968 15.6098 173.266 16.0357C174.018 16.133 174.806 16.206 175.534 16.425C175.837 16.5102 176.176 16.6562 176.407 16.8752C176.964 17.4227 176.419 17.9215 175.909 18.1892C174.6 18.8827 173.109 19.1625 171.641 19.2233C168.707 19.3572 165.785 18.7488 162.851 18.8583C161.481 18.907 160.135 19.1382 158.837 19.6127C157.322 20.1723 155.915 20.9632 154.388 21.4863C152.617 22.0947 150.75 22.3988 148.871 22.3988C146.967 22.3988 145.088 22.1068 143.208 21.8878C139.401 21.4498 135.582 21.462 131.787 21.973C131.556 22.0095 131.556 22.3745 131.787 22.338C135.497 21.8392 139.256 21.8027 142.978 22.2285C144.821 22.4353 146.664 22.7273 148.531 22.7638C150.253 22.8003 151.987 22.5813 153.648 22.1068C155.345 21.6202 156.897 20.7807 158.534 20.1237C160.123 19.491 161.76 19.2112 163.457 19.2112C166.585 19.1868 169.726 19.8925 172.854 19.4788C173.618 19.3815 174.357 19.2112 175.085 18.9435C175.643 18.7367 176.394 18.4812 176.795 18.0067C177.546 17.0942 176.455 16.2912 175.643 16.06C174.042 15.5855 172.236 15.5003 170.574 15.403C168.768 15.2935 166.961 15.3057 165.155 15.3908C157.843 15.7437 150.617 17.2767 143.281 17.2523C141.196 17.2523 139.11 17.0577 137.025 17.0455C135.254 17.0333 133.229 17.0698 131.568 17.7633C130.526 18.2013 129.507 19.2233 130.089 20.4278C130.635 21.5593 132.175 21.9487 133.29 22.1068C133.508 22.1798 133.605 21.827 133.375 21.7905Z" fill="#E8E8E8"/>
<path d="M16.1141 38.398C26.2264 33.9937 37.3086 38.106 46.6327 42.5225C51.3857 44.7733 56.066 47.1823 61.0251 48.9587C65.8872 50.6985 70.9434 51.903 76.0722 52.5965C86.3664 53.9957 96.903 53.3752 107.027 51.1C117.637 48.7153 127.688 44.384 138.213 41.6708C149.162 38.8482 160.608 38.2398 171.775 40.0527C173.133 40.2717 174.479 40.5272 175.825 40.8192C176.055 40.8678 176.152 40.515 175.922 40.4663C165.082 38.1547 153.818 38.0452 142.954 40.2108C132.09 42.3765 121.868 46.8052 111.21 49.6887C100.868 52.487 90.0645 53.6185 79.3824 52.6087C74.0716 52.1098 68.8094 51.0757 63.7169 49.4697C58.4546 47.815 53.5197 45.406 48.5606 43.0213C39.6002 38.7022 29.488 34.3222 19.3515 36.8893C18.1754 37.1813 17.0477 37.5828 15.9322 38.0695C15.7261 38.179 15.908 38.4953 16.1141 38.398Z" fill="#E8E8E8"/>
<path d="M57.6059 34.0423C69.452 40.6732 83.5534 41.172 96.6969 39.3227C111.574 37.23 125.906 32.3025 140.808 30.3802C149.101 29.3095 157.564 29.1757 165.773 31.0007C166.003 31.0493 166.1 30.6965 165.87 30.6478C151.356 27.4358 136.467 30.2707 122.256 33.5922C108.252 36.865 94.09 40.6853 79.5764 39.7485C71.9983 39.2618 64.4565 37.449 57.7878 33.726C57.5938 33.6043 57.4119 33.9207 57.6059 34.0423Z" fill="#E8E8E8"/>
<path d="M22.2373 11.3272C32.4223 8.89383 43.2863 9.855 52.8893 14.0525C57.6059 16.1087 62.0315 18.7853 66.6633 21.0118C71.3314 23.2505 76.2056 24.7957 81.3466 25.4892C87.2273 26.28 93.1806 26.1462 99.0734 25.7568C99.3038 25.7447 99.3038 25.3797 99.0734 25.3918C93.7505 25.7447 88.3791 25.8907 83.0684 25.331C77.6849 24.7592 72.5439 23.3478 67.6333 21.0727C62.9651 18.8948 58.5516 16.2182 53.8593 14.1012C49.2518 11.9842 44.3654 10.585 39.3335 9.98883C33.5984 9.29533 27.7541 9.636 22.1403 10.9743C21.9099 11.023 22.0069 11.3758 22.2373 11.3272Z" fill="#E8E8E8"/>
<path d="M125.542 85.0693C124.475 84.8503 122.729 84.3028 122.644 82.9767C122.596 82.1615 123.275 81.5653 123.99 81.3463C124.851 81.0665 125.761 81.322 126.597 81.5653C128.125 82.0155 129.665 82.3805 131.265 82.4413C132.757 82.5022 134.236 82.2832 135.679 81.8938C137.231 81.4802 138.746 80.9205 140.286 80.4825C141.911 80.0202 143.572 79.7768 145.27 79.7525C148.507 79.7038 151.708 80.2878 154.933 80.4217C156.546 80.4825 158.134 80.3973 159.723 80.154C161.444 79.8863 163.203 79.4848 164.961 79.6917C166.222 79.8377 168.247 80.6893 167.834 82.3197C167.471 83.7432 165.458 84.5462 164.221 84.9477C158.013 86.9673 151.611 83.6093 145.318 84.4975C141.693 85.0085 138.274 86.5415 134.612 86.8335C132.939 86.9673 131.217 86.8578 129.628 86.2617C128.173 85.702 126.864 84.4853 125.203 84.7773C124.972 84.8138 125.069 85.1667 125.3 85.1302C126.294 84.9598 127.167 85.4343 128.004 85.8967C128.683 86.2617 129.362 86.6023 130.101 86.8213C131.617 87.2837 133.242 87.3445 134.818 87.1985C138.286 86.87 141.547 85.4952 144.979 84.9355C148.762 84.3272 152.484 85.2032 156.219 85.702C159.262 86.1035 162.524 86.2008 165.385 84.9233C166.476 84.4367 167.931 83.658 168.21 82.3683C168.465 81.2125 167.58 80.2878 166.622 79.8133C165.203 79.1198 163.494 79.2537 161.99 79.4605C160.159 79.7038 158.377 80.0932 156.522 80.1175C152.908 80.1783 149.344 79.4362 145.743 79.424C144.021 79.424 142.311 79.6187 140.638 80.0567C138.977 80.4947 137.364 81.103 135.715 81.5532C133.678 82.1007 131.629 82.271 129.544 81.9425C128.501 81.7722 127.519 81.4802 126.512 81.1882C125.761 80.9692 124.948 80.7867 124.16 80.957C122.984 81.2125 121.917 82.3318 122.438 83.585C122.911 84.7287 124.354 85.2275 125.47 85.4587C125.664 85.4708 125.761 85.118 125.542 85.0693Z" fill="#E8E8E8"/>
<path d="M71.1374 133.116C75.6722 132.021 80.1099 130.524 84.39 128.663C86.6089 127.689 88.7793 126.582 91.1437 125.998C93.411 125.426 95.7633 125.256 98.1034 125.317C100.807 125.378 103.487 125.743 106.154 126.168C106.385 126.205 106.482 125.852 106.251 125.816C101.705 125.098 97.0243 124.514 92.4532 125.341C90.1009 125.767 87.9427 126.667 85.7844 127.653C83.517 128.687 81.2254 129.624 78.8732 130.451C76.3027 131.351 73.6958 132.13 71.0404 132.763C70.81 132.811 70.907 133.164 71.1374 133.116Z" fill="#161616"/>
<path d="M99.7887 125.45C101.826 125.402 103.838 125.11 105.803 124.538C107.803 123.966 109.78 123.163 111.902 123.37C112.981 123.467 114.036 123.772 115.078 124.039C116.17 124.319 117.249 124.599 118.34 124.879C120.438 125.414 122.523 125.949 124.621 126.485C124.851 126.545 124.948 126.193 124.718 126.132C122.547 125.572 120.377 125.025 118.207 124.465C116.218 123.954 114.181 123.273 112.144 123.029C110.143 122.798 108.252 123.419 106.36 124.003C104.214 124.66 102.032 125.037 99.8008 125.098C99.5583 125.085 99.5584 125.45 99.7887 125.45Z" fill="#161616"/>
<path d="M121.02 127.336C125.785 126.278 130.792 125.365 135.63 126.485C138.031 127.044 140.286 128.115 142.529 129.101C144.882 130.147 147.246 131.181 149.598 132.227C149.817 132.325 149.998 132.008 149.78 131.911C146.094 130.281 142.445 128.517 138.686 127.069C135.048 125.67 131.265 125.39 127.41 125.828C125.227 126.083 123.057 126.509 120.911 126.996C120.692 127.032 120.789 127.385 121.02 127.336Z" fill="#161616"/>
<path d="M77.9394 137.337C79.1883 137.118 80.4493 136.899 81.6982 136.68C82.947 136.461 84.208 136.182 85.469 136.048C86.633 135.926 87.8213 136.133 88.9732 136.242C90.2463 136.376 91.5315 136.498 92.8047 136.632C93.035 136.656 93.035 136.291 92.8047 136.267C91.5315 136.133 90.2463 136.011 88.9732 135.877C87.7364 135.756 86.4875 135.549 85.2387 135.707C82.7652 136.011 80.3038 136.559 77.8424 136.985C77.612 137.033 77.709 137.386 77.9394 137.337Z" fill="#161616"/>
<path d="M44.4503 82.4657C45.2806 82.4657 45.9538 81.7902 45.9538 80.957C45.9538 80.1238 45.2806 79.4483 44.4503 79.4483C43.6199 79.4483 42.9468 80.1238 42.9468 80.957C42.9468 81.7902 43.6199 82.4657 44.4503 82.4657Z" fill="#EC615B"/>
<path d="M48.5121 85.775C48.9474 85.775 49.3002 85.4209 49.3002 84.9842C49.3002 84.5474 48.9474 84.1933 48.5121 84.1933C48.0769 84.1933 47.724 84.5474 47.724 84.9842C47.724 85.4209 48.0769 85.775 48.5121 85.775Z" fill="#EC615B"/>
<path d="M133.072 8.52883C134.096 8.52883 134.927 7.69541 134.927 6.66733C134.927 5.63925 134.096 4.80583 133.072 4.80583C132.047 4.80583 131.217 5.63925 131.217 6.66733C131.217 7.69541 132.047 8.52883 133.072 8.52883Z" fill="#EC615B"/>
<path d="M137.388 10.6337C137.971 10.6337 138.443 10.1598 138.443 9.57516C138.443 8.99057 137.971 8.51666 137.388 8.51666C136.806 8.51666 136.333 8.99057 136.333 9.57516C136.333 10.1598 136.806 10.6337 137.388 10.6337Z" fill="#EC615B"/>
<path d="M136.685 10.1957C137.656 10.1957 138.443 9.40583 138.443 8.4315C138.443 7.45718 137.656 6.66734 136.685 6.66734C135.714 6.66734 134.927 7.45718 134.927 8.4315C134.927 9.40583 135.714 10.1957 136.685 10.1957Z" fill="#5222D0"/>
<path d="M132.478 100.983C133.79 100.983 134.854 99.9157 134.854 98.5987C134.854 97.2817 133.79 96.214 132.478 96.214C131.165 96.214 130.101 97.2817 130.101 98.5987C130.101 99.9157 131.165 100.983 132.478 100.983Z" fill="#5222D0"/>
<path d="M46.1963 9.709C47.0333 9.709 47.7119 9.0281 47.7119 8.18817C47.7119 7.34824 47.0333 6.66734 46.1963 6.66734C45.3592 6.66734 44.6807 7.34824 44.6807 8.18817C44.6807 9.0281 45.3592 9.709 46.1963 9.709Z" fill="#5222D0"/>
<path d="M70.1795 113.71C71.204 113.71 72.0346 112.876 72.0346 111.848C72.0346 110.82 71.204 109.987 70.1795 109.987C69.1549 109.987 68.3243 110.82 68.3243 111.848C68.3243 112.876 69.1549 113.71 70.1795 113.71Z" fill="#5222D0"/>
<path d="M83.5655 78.694C83.3109 78.5845 83.6019 78.1343 83.7352 78.0735C83.8929 78.0005 84.2081 78.0978 84.3779 78.1465C84.6446 78.2317 84.875 78.3777 85.1417 78.4507C85.4327 78.5358 85.7844 78.5602 86.0632 78.4263C87.0332 77.9275 85.8814 76.2485 87.3 76.2485C88.076 76.2485 88.7307 77.4043 89.3734 76.5405C89.6037 76.2363 89.7007 75.847 89.822 75.482C89.919 75.1657 90.0039 74.8372 90.2221 74.5817C90.4767 74.2897 91.2527 73.9977 91.3376 74.6303C91.3619 74.8615 91.7377 74.8615 91.7014 74.6303C91.6407 74.1923 91.3255 73.9003 90.8769 73.876C90.3434 73.8395 89.9554 74.241 89.7371 74.679C89.5795 74.9832 89.5067 75.3238 89.3976 75.6523C89.3249 75.8835 89.2279 76.285 89.0217 76.431C88.8035 76.577 88.6337 76.4188 88.4519 76.3093C87.979 75.993 87.4091 75.7497 86.8392 75.9565C86.3179 76.1512 86.1117 76.6013 86.136 77.1367C86.136 77.2948 86.1845 77.4895 86.1724 77.6477C86.0875 78.2073 85.7116 78.2317 85.3236 78.1465C84.9356 78.0613 84.6082 77.818 84.2081 77.745C83.7837 77.6598 83.3594 77.7693 83.1654 78.1952C83.0077 78.5602 83.1047 78.9252 83.4685 79.0712C83.6867 79.132 83.7837 78.7792 83.5655 78.694Z" fill="#5222D0"/>
<path d="M89.822 79.278C89.6401 78.9982 89.6401 78.6453 89.8341 78.3655C90.113 77.964 90.501 78.0248 90.9253 78.0857C91.2406 78.1343 91.6286 78.1952 91.859 77.9153C92.0166 77.7328 91.9923 77.5138 92.053 77.307C92.1378 77.0028 92.3318 76.7352 92.5865 76.5527C93.12 76.1633 93.8717 76.1025 94.4052 76.5162C94.5386 76.6135 94.6962 76.5527 94.7205 76.3823C94.866 75.2022 96.03 74.3262 97.194 74.533C97.4243 74.5695 97.5213 74.2167 97.291 74.1802C95.8723 73.9368 94.5265 74.9588 94.3567 76.3823C94.4658 76.3337 94.5628 76.2972 94.672 76.2485C94.1748 75.8592 93.5443 75.7618 92.9502 75.9687C92.2712 76.1998 91.956 76.65 91.7013 77.2827C91.5801 77.599 91.4346 77.7937 91.083 77.745C90.889 77.7207 90.7071 77.672 90.5131 77.6598C90.2342 77.6477 89.9917 77.7207 89.7735 77.9032C89.3127 78.2925 89.1915 78.9617 89.5188 79.4727C89.6401 79.6673 89.9553 79.4848 89.822 79.278Z" fill="#5222D0"/>
<path d="M95.9572 12.6898C95.7511 12.4952 95.8117 12.3735 96.127 12.3127C96.2604 12.1302 96.4059 12.0937 96.5635 12.2153C96.7817 12.264 96.9272 12.4587 97.0849 12.6047C97.2789 12.775 97.4486 12.9697 97.6669 13.1035C97.97 13.2738 98.3459 13.3468 98.6611 13.1887C99.0491 12.994 99.0612 12.6047 99.1946 12.2397C99.5584 11.2663 100.795 11.169 101.377 11.9963C101.45 12.0937 101.632 12.1302 101.692 11.9963C101.923 11.4488 102.214 10.8283 102.735 10.4998C103.256 10.1713 104.129 10.2078 104.36 10.8892C104.433 11.1082 104.784 11.0108 104.711 10.7918C104.481 10.1348 103.814 9.84283 103.147 9.95233C102.226 10.1105 101.717 11.0352 101.377 11.8138C101.486 11.8138 101.583 11.8138 101.692 11.8138C101.268 11.2055 100.54 10.877 99.813 11.1447C99.5099 11.2542 99.231 11.4732 99.0491 11.753C98.9521 11.899 98.8915 12.0572 98.8309 12.2275C98.7945 12.337 98.7945 12.4708 98.7339 12.5682C98.5762 12.8358 98.1397 12.9453 97.8609 12.7872C97.2667 12.4587 96.6847 11.4123 95.8602 11.8382C95.3995 12.0693 95.3389 12.7263 95.7754 13.0062C95.9815 13.1278 96.1634 12.8115 95.9572 12.6898Z" fill="#EC615B"/>
<path d="M103.741 12.5925C103.657 11.3758 105.209 11.7773 105.827 12.0815C106.142 12.2397 106.53 12.5317 106.87 12.264C106.979 12.1788 107.027 12.0572 107.076 11.9355C107.258 11.534 107.379 11.242 107.864 11.096C108.616 10.877 109.343 11.3515 109.949 11.7408C110.143 11.8625 110.325 11.5462 110.131 11.4245C109.489 11.023 108.761 10.5728 107.973 10.7067C107.719 10.7432 107.464 10.8405 107.258 10.9987C106.942 11.2298 106.882 11.6313 106.567 11.826C106.264 12.0085 106.142 11.826 105.839 11.68C105.682 11.607 105.524 11.534 105.354 11.4732C105.039 11.3637 104.699 11.315 104.372 11.388C103.802 11.5218 103.341 11.9842 103.378 12.5925C103.39 12.8237 103.754 12.8237 103.741 12.5925Z" fill="#EC615B"/>
<path d="M138.831 62.9868C138.031 61.2227 141.062 60.444 141.268 62.2933C141.341 62.9138 141.002 63.5708 140.371 63.7412C139.668 63.9237 138.916 63.4492 138.722 62.7678C138.661 62.5367 138.31 62.634 138.37 62.8652C138.613 63.7412 139.571 64.3252 140.468 64.094C141.353 63.8628 141.79 62.8773 141.584 62.0257C141.365 61.1253 140.432 60.6873 139.571 60.9185C138.564 61.1862 138.092 62.2447 138.516 63.1937C138.613 63.3883 138.928 63.1937 138.831 62.9868Z" fill="#EC615B"/>
<path d="M141.087 64.386C140.432 64.3252 140.189 63.4492 140.638 63.0112C141.014 62.634 141.656 62.6583 142.057 62.9747C142.469 63.3032 142.869 64.2643 142.408 64.7267C141.802 65.335 141.062 64.3495 140.771 63.9115C140.638 63.7168 140.323 63.8993 140.456 64.094C140.88 64.751 141.85 65.7852 142.663 64.9822C143.305 64.3495 142.845 63.072 142.214 62.6218C141.572 62.1595 140.517 62.3177 140.153 63.072C139.789 63.802 140.323 64.678 141.099 64.751C141.317 64.7753 141.317 64.4103 141.087 64.386Z" fill="#EC615B"/>
<path d="M30.943 49.0925C31.428 49.0682 31.6826 48.7397 32.0221 48.4355C32.8224 47.7177 33.7439 48.399 34.2531 49.1047C34.7381 49.7738 35.4414 50.2483 36.0598 49.4453C36.3508 49.0682 36.4963 48.5085 36.8964 48.2408C37.7088 47.6933 38.3999 48.7762 38.9091 49.2507C39.4911 49.786 40.6915 50.0293 40.9583 49.0317C41.0189 48.8005 40.6673 48.7032 40.6066 48.9343C40.4733 49.4575 39.8428 49.4453 39.4669 49.2263C39.1759 49.056 38.9698 48.7883 38.7394 48.5572C38.3999 48.1922 38.024 47.8393 37.5148 47.742C36.6781 47.596 36.3023 48.3503 35.9264 48.9587C35.8294 49.129 35.7081 49.3602 35.5263 49.4575C35.0898 49.6887 34.7745 49.2263 34.5441 48.9222C34.2531 48.5085 33.9258 48.1557 33.4529 47.9367C33.0649 47.7542 32.6041 47.6933 32.204 47.8637C31.7433 48.0583 31.4523 48.7153 30.9309 48.7397C30.7126 48.7397 30.7126 49.1047 30.943 49.0925Z" fill="#EC615B"/>
<path d="M39.4184 46.5862C39.9277 47.1945 40.8371 48.0097 41.6373 47.3405C41.8313 47.1702 41.9404 46.9268 42.1466 46.7565C42.4497 46.5253 42.8498 46.4767 43.2014 46.5862C43.9653 46.793 44.4139 47.523 44.8141 48.1435C44.8868 48.253 45.0687 48.2773 45.1293 48.1435C45.6507 46.9998 47.0451 46.72 48.1363 47.158C48.3546 47.2432 48.4516 46.8903 48.2333 46.8052C47.0087 46.3063 45.3961 46.6713 44.8141 47.9488C44.9232 47.9488 45.0202 47.9488 45.1293 47.9488C44.5837 47.0972 43.8926 46.1238 42.7528 46.1603C42.3527 46.1725 41.9889 46.3428 41.7222 46.6348C41.4069 46.9998 41.1402 47.2918 40.6188 47.1337C40.2187 47.012 39.9277 46.6348 39.6609 46.3185C39.5276 46.1482 39.2729 46.4037 39.4184 46.5862Z" fill="#EC615B"/>
<path d="M61.2554 59.3125C61.0978 58.9962 60.9159 58.6677 60.7704 58.3392C60.6128 57.9985 60.6856 57.8647 60.8917 57.5727C61.1584 57.1955 61.5707 56.8548 62.0436 57.1103C62.3831 57.2928 62.6013 57.7065 62.6983 58.0593C62.8681 58.6555 62.7226 59.5072 62.0314 59.7018C61.4616 59.86 60.7219 59.5072 60.7462 58.8502C60.7462 58.619 60.3824 58.619 60.3824 58.8502C60.3582 59.6653 61.1706 60.1763 61.9223 60.0912C62.8438 59.9817 63.2318 59.0083 63.0984 58.181C62.9651 57.378 62.2254 56.356 61.3039 56.7332C60.8553 56.9157 60.5158 57.3902 60.3097 57.816C60.1884 58.0715 60.2127 58.0837 60.3339 58.3392C60.5279 58.7285 60.7219 59.1178 60.9159 59.495C61.0493 59.7018 61.3646 59.5193 61.2554 59.3125Z" fill="#5222D0"/>
<path d="M62.6014 61.6972C62.1406 61.1497 61.3525 60.079 62.0315 59.3977C62.5165 58.911 63.3895 59.0935 63.7896 59.5802C64.2019 60.079 64.2868 61.0523 63.6441 61.4173C63.0985 61.7337 62.3104 61.4295 62.2134 60.7968C62.177 60.5657 61.8254 60.663 61.8618 60.8942C62.0073 61.7215 63.0136 62.1108 63.7411 61.7823C64.6263 61.3687 64.6626 60.1398 64.1413 59.422C63.6441 58.7285 62.5529 58.4852 61.8739 59.057C60.8918 59.8722 61.7405 61.2105 62.3589 61.9405C62.4923 62.1352 62.7469 61.8797 62.6014 61.6972Z" fill="#EC615B"/>
<path d="M134.297 37.0718C134.309 36.0012 135.776 36.3175 136.406 36.3905C136.952 36.4513 137.449 36.3783 137.934 36.1107C138.468 35.8308 138.904 35.3928 139.425 35.0887C139.765 34.8818 140.177 34.6993 140.577 34.6993C141.002 34.7115 141.268 34.967 141.644 35.1252C142.517 35.478 143.075 34.6628 143.621 34.1275C144.7 33.069 146.24 33.507 147.501 33.945C147.719 34.018 147.816 33.6652 147.598 33.5922C146.47 33.2028 145.039 32.777 143.924 33.4218C143.39 33.726 143.075 34.2857 142.59 34.6385C141.899 35.1373 141.317 34.3465 140.589 34.3343C139.025 34.31 138.201 36.1228 136.625 36.0377C135.946 36.0012 135.291 35.7457 134.636 36.0498C134.212 36.2445 133.945 36.5852 133.933 37.0597C133.921 37.303 134.284 37.303 134.297 37.0718Z" fill="#5222D0"/>
<path d="M143.366 36.6582C144.142 35.551 145.597 35.0157 146.906 35.3928C147.476 35.5632 148.01 36.0255 148.64 35.989C149.162 35.9525 149.441 35.5267 149.792 35.1982C150.362 34.675 151.102 34.2492 151.902 34.2735C152.387 34.2857 152.763 34.4682 153.139 34.7845C153.26 34.894 153.357 34.9913 153.527 35.04C153.769 35.1008 153.987 34.9913 154.206 34.894C154.582 34.7237 154.97 34.5777 155.37 34.4682C156.194 34.2613 157.031 34.2248 157.867 34.3343C158.098 34.3587 158.098 33.9937 157.867 33.9693C157.067 33.8598 156.267 33.8842 155.479 34.0667C155.127 34.1518 154.776 34.2613 154.436 34.3952C154.169 34.5047 154.036 34.5777 153.733 34.5777C153.405 34.5777 153.43 34.529 153.211 34.3587C152.181 33.5678 150.799 33.9328 149.865 34.675C149.61 34.8697 149.404 35.1373 149.162 35.332C148.58 35.7943 148.119 35.5023 147.525 35.2347C147.016 35.0035 146.482 34.894 145.924 34.9183C144.772 34.967 143.73 35.5388 143.075 36.4757C142.917 36.6703 143.233 36.8528 143.366 36.6582Z" fill="#5222D0"/>
<path d="M116.994 118.26C117.224 119.72 117.455 121.192 117.673 122.652C112.884 124.209 110.531 125.195 110.628 125.609C110.75 126.12 114.581 125.743 122.123 124.514C121.686 122.202 121.262 119.89 120.826 117.579C119.54 117.798 118.267 118.029 116.994 118.26Z" fill="black"/>
<path d="M106.688 69.3743C106.603 71.029 106.482 73.3893 106.373 76.2485C106.264 79.278 106.203 80.8597 106.215 82.8063C106.215 83.6458 106.251 87.0647 106.688 91.469C107.052 95.1798 107.622 100.728 109.646 107.553C110.447 110.254 111.683 113.88 113.611 118.017C114.496 118.151 115.539 118.224 116.727 118.175C118.958 118.065 120.765 117.518 122.014 117.007C121.65 115.815 121.141 114.123 120.607 112.092C119.892 109.342 117.831 101.056 117.031 89.9238C116.63 84.3272 116.485 77.3435 117.188 69.3135C113.696 69.3257 110.192 69.35 106.688 69.3743Z" fill="white"/>
<path opacity="0.09" d="M116.885 70.3112C116.655 71.1872 116.351 72.4525 116.024 73.9855C115.175 78.037 114.302 83.8162 114.387 93.586C114.436 99.5963 114.86 107.906 116.412 117.944C117.018 117.883 117.637 117.81 118.279 117.713C119.625 117.506 120.874 117.238 122.014 116.934C121.505 115.279 120.801 112.822 120.074 109.829C117.491 99.1583 116.764 90.1063 116.57 84.1325C116.461 80.5798 116.461 75.8713 116.885 70.3112Z" fill="#606060"/>
<path d="M116.921 69.6907C115.709 82.0033 116.461 94.4985 119.14 106.58C119.904 110.011 120.814 113.393 121.881 116.739C121.953 116.958 122.305 116.861 122.232 116.642C118.498 104.877 116.63 92.5397 116.727 80.1905C116.752 76.6865 116.946 73.1703 117.285 69.6785C117.309 69.4595 116.946 69.4595 116.921 69.6907Z" fill="#161616"/>
<path d="M106.191 80.6042C105.742 90.5808 107.136 100.618 110.265 110.096C111.138 112.748 112.156 115.352 113.308 117.895C113.405 118.114 113.72 117.919 113.623 117.712C109.561 108.648 107.173 98.8542 106.603 88.9383C106.445 86.1643 106.433 83.3903 106.554 80.6042C106.567 80.3608 106.203 80.373 106.191 80.6042Z" fill="#161616"/>
<path d="M113.454 118.005C113.866 118.467 114.812 118.357 115.369 118.37C116.218 118.382 117.079 118.296 117.916 118.175C118.825 118.041 119.734 117.846 120.632 117.627C121.08 117.518 122.014 117.493 122.244 116.995C122.341 116.788 122.026 116.593 121.929 116.812C121.82 117.068 121.214 117.116 120.983 117.165C120.644 117.25 120.316 117.323 119.977 117.408C119.334 117.554 118.704 117.688 118.061 117.785C117.394 117.895 116.727 117.968 116.061 117.992C115.551 118.017 114.096 118.175 113.72 117.749C113.551 117.566 113.296 117.834 113.454 118.005Z" fill="#161616"/>
<path d="M103.111 69.3013C102.759 70.0678 102.286 71.5278 101.947 72.8175C101.523 74.46 101.413 75.4455 101.171 76.8812C100.722 79.5335 100.419 79.9837 99.7645 82.8915C99.0734 86.0062 98.7581 88.403 98.5156 90.3132C98.3216 91.7975 97.97 94.827 97.8124 98.7447C97.7396 100.436 97.7032 101.433 97.7396 102.808C97.8366 107.127 98.5277 110.473 98.8309 111.787C99.6432 115.401 100.831 118.491 102.02 120.997C102.565 121.277 103.39 121.63 104.433 121.861C105.718 122.141 107.367 122.506 108.943 121.703C109.38 121.484 110.374 120.876 111.126 119.44C110.544 117.846 109.828 115.583 109.258 112.809C107.852 105.923 108.361 100.472 108.713 97.0413C109.367 90.5565 110.871 85.6898 113.454 77.2948C114.327 74.4722 115.103 72.1848 115.636 70.664C115.818 69.4595 116.242 65.846 114.314 64.3373C111.489 62.0987 104.905 65.4202 103.111 69.3013Z" fill="white"/>
<path opacity="0.08" d="M113.927 75.774C113.138 77.0272 112.047 78.8887 110.968 81.2368C109.634 84.1325 107.67 89.2182 106.615 99.353C106.033 104.889 105.645 112.639 106.542 121.995C106.918 122.032 108.519 122.166 109.889 121.058C110.592 120.487 110.956 119.83 111.138 119.416C110.544 117.773 109.78 115.364 109.198 112.384C107.476 103.697 108.555 96.7128 109.355 91.8462C110.01 87.7825 111.283 82.1737 113.927 75.774Z" fill="#606060"/>
<path d="M105.015 121.837C105.427 123.321 105.839 124.818 106.251 126.302C99.7524 128.285 96.5635 129.526 96.6726 130.013C96.7939 130.573 101.22 130.159 109.95 128.772C109.719 126.387 109.489 124.015 109.271 121.63C107.84 121.691 106.421 121.764 105.015 121.837Z" fill="black"/>
<path d="M102.978 69.4473C101.692 72.708 101.038 76.1633 100.346 79.5943C99.6189 83.1835 98.9157 86.7727 98.4064 90.3983C97.4607 97.1143 97.1697 103.988 98.4671 110.68C99.1582 114.281 100.322 117.785 102.032 121.022C102.141 121.229 102.456 121.046 102.347 120.839C95.8602 108.466 97.8244 93.9875 100.468 80.8597C101.232 77.0515 101.911 73.1703 103.341 69.5447C103.414 69.3257 103.062 69.2283 102.978 69.4473Z" fill="#161616"/>
<path d="M113.769 75.7497C109.707 86.6145 106.991 98.2945 108.567 109.938C109.004 113.15 109.768 116.301 110.883 119.343C110.968 119.562 111.32 119.465 111.235 119.246C107.197 108.308 108.022 96.3113 111.053 85.2275C111.926 82.052 112.969 78.9252 114.121 75.8348C114.205 75.6158 113.854 75.5307 113.769 75.7497Z" fill="#161616"/>
<path d="M102.068 121.01C103.778 121.959 105.742 122.36 107.682 122.105C109.27 121.886 111.113 121.156 111.271 119.319C111.295 119.087 110.932 119.087 110.907 119.319C110.738 121.229 108.434 121.74 106.87 121.813C105.257 121.886 103.669 121.484 102.262 120.693C102.044 120.584 101.862 120.9 102.068 121.01Z" fill="#161616"/>
<path d="M105.609 37.595C105.281 37.9843 104.821 38.5805 104.384 39.3713C102.893 41.9993 102.796 44.5787 102.772 46.8417C102.747 50.1388 102.723 51.7935 103.075 55.3827C103.402 58.7407 103.487 63.5587 102.311 69.7028C103.366 70.4815 104.906 71.3818 106.918 71.8563C112.714 73.219 117.516 69.8245 118.425 69.1675C117.273 62.3907 116.643 56.9643 116.279 53.1562C116.048 50.7472 115.2 47.2432 113.514 40.223C113.005 38.0817 112.484 36.0377 110.907 35.4537C108.725 34.6263 106.045 37.1692 105.609 37.595Z" fill="#EC615B"/>
<path opacity="0.1" d="M110.847 35.624C111.041 36.4148 111.32 37.6072 111.599 39.0793C111.962 40.9773 112.447 43.8487 112.787 48.1192C113.138 52.5235 113.539 60.7847 113.66 71.467C114.484 71.2237 115.479 70.8587 116.533 70.2747C117.237 69.8853 117.843 69.4717 118.352 69.0823C118.267 68.1455 118.11 66.722 117.855 65.0065C117.528 62.853 117.2 61.3565 117.043 60.6143C116.655 58.692 116.218 55.8207 116.17 51.83C115.673 49.713 115.297 48.0097 115.042 46.8782C114.339 43.6662 114.133 42.486 113.599 40.5393C113.066 38.5805 112.508 37.0232 112.156 36.0863C111.72 35.916 111.283 35.77 110.847 35.624Z" fill="#606060"/>
<path d="M105.597 38.763C105.706 38.982 105.888 39.055 106.288 39.2497C106.627 39.42 106.955 39.6268 107.294 39.7728C108.337 40.223 109.561 42.2183 109.755 42.5347C110.495 43.7392 111.356 45.1505 111.853 47.1945C111.986 47.7298 112.29 49.1168 111.938 53.801C111.562 58.6068 111.077 59.276 111.453 61.6728C111.732 63.4127 112.083 65.4932 113.793 66.6247C115.381 67.671 117.212 67.306 117.588 67.233C119.892 66.7828 121.201 64.9943 122.475 63.2545C124.415 60.6143 125.154 57.9742 125.47 56.4412C125.615 55.7233 125.591 53.6185 125.554 49.421C125.506 45.0897 125.433 43.5932 124.305 42.3278C123.542 41.4762 122.608 41.0747 121.965 40.8678C122.014 40.6002 122.026 40.1987 121.808 39.858C121.395 39.2253 120.413 39.2375 119.783 39.2497C117.079 39.3227 115.066 41.1477 114.969 41.2328C113.284 42.8023 112.787 44.7247 112.629 45.5277C112.29 44.019 111.732 42.8632 111.295 42.121C110.919 41.4762 110.362 40.8192 109.234 39.4808C108.349 38.4345 107.925 38.033 107.258 37.814C107.112 37.7653 106.009 37.4368 105.645 37.9357C105.475 38.1668 105.475 38.5197 105.597 38.763Z" fill="white"/>
<path opacity="0.11" d="M105.512 38.3128C105.585 38.179 106.397 38.4832 106.482 38.5197C107.682 38.982 108.749 39.9432 110.119 42.1697C110.823 43.3133 111.708 44.9315 112.459 47.0363C112.993 46.4888 113.442 46.0387 113.793 45.698C113.793 45.698 115.091 44.4448 117.188 43.2282C117.394 43.1065 117.649 42.9605 117.831 43.07C118.207 43.2768 117.807 44.2867 117.916 45.2235C118.001 45.9292 118.413 46.9025 119.977 47.9853C120.013 48.1922 120.025 48.4842 119.856 48.6788C119.516 49.056 118.643 48.7518 118.195 48.5937C117.467 48.3382 116.061 47.669 114.399 45.7102C114.242 46.3428 114.036 47.2432 113.878 48.3503C113.733 49.3115 113.332 52.5113 113.999 56.6237C114.266 58.254 114.763 60.4318 115.782 62.9138C116.23 63.1085 116.8 63.291 117.479 63.4005C118.898 63.6195 120.074 63.3397 120.753 63.1207C120.353 63.3153 119.807 63.6438 119.334 64.2157C118.764 64.9092 118.752 65.4323 118.279 66.0772C117.964 66.5152 117.394 67.0627 116.339 67.452C116.012 67.4155 115.515 67.3303 114.969 67.087C113.308 66.3448 112.556 64.7753 112.217 64.0453C111.768 63.0598 111.077 61.0645 111.732 54.312C112.108 50.4552 112.52 49.2507 111.89 47.0485C111.405 45.3573 110.568 43.9582 110.277 43.4837C109.756 42.632 108.822 41.1112 107.124 39.712C106.324 39.0307 105.439 38.471 105.512 38.3128Z" fill="#606060"/>
<path d="M119.031 41.0382C118.813 41.3302 118.534 41.756 118.316 42.3157C118.194 42.6442 117.903 43.4107 117.976 44.384C118.11 46.3185 119.492 47.4987 119.746 47.7055C119.916 47.8393 120.062 47.9488 120.159 48.0097C120.013 48.5085 119.843 49.2507 119.783 50.1632C119.686 51.4528 119.589 52.9007 120.341 53.3265C120.826 53.5942 121.553 53.4117 121.953 53.0223C122.05 52.925 122.329 52.6208 122.402 51.246C122.487 49.6157 122.147 48.9343 122.632 48.4598C122.838 48.2408 123.19 48.107 123.493 47.9732C123.833 47.8272 124.136 47.7542 124.354 47.7055C124.221 48.7032 124.124 49.5913 124.051 50.3092C123.966 51.1973 123.93 51.6475 124.233 51.9273C124.512 52.1828 124.972 52.2315 125.324 52.0733C125.785 51.8665 125.93 51.2947 126.185 50.151C126.391 49.2507 126.561 48.4963 126.452 47.4743C126.391 46.9512 126.282 46.5253 126.185 46.2333C126.161 46.0265 126.1 45.7223 126.003 45.3695C125.797 44.6638 125.603 44.457 125.482 44.0068C125.3 43.362 125.506 43.0457 125.554 42.3157C125.603 41.7438 125.554 40.9287 125.142 39.9067C124.984 39.9188 124.657 39.9432 124.318 40.1743C123.905 40.442 123.736 40.8313 123.675 40.9652C123.36 40.8922 122.79 40.8192 122.135 41.0017C121.007 41.3058 120.413 42.1453 120.256 42.4008C120.571 41.7073 120.304 41.026 119.88 40.8557C119.516 40.6975 119.08 41.0138 119.031 41.0382Z" fill="black"/>
<path d="M120.401 44.8098C120.523 44.5787 121.129 44.0677 121.335 44.4935C121.432 44.7003 121.747 44.5178 121.65 44.311C121.517 44.0312 121.189 43.946 120.898 44.0068C120.547 44.0677 120.256 44.311 120.086 44.6273C119.977 44.8342 120.292 45.0167 120.401 44.8098Z" fill="white"/>
<path d="M123.954 43.873C124.027 43.7148 124.099 43.5323 124.221 43.4107C124.342 43.289 124.706 43.1552 124.718 43.435C124.73 43.6662 125.094 43.6662 125.082 43.435C125.057 43.0822 124.754 42.851 124.403 42.8997C124.002 42.9727 123.796 43.3377 123.639 43.6783C123.542 43.8973 123.857 44.092 123.954 43.873Z" fill="white"/>
<path d="M124.051 45.0288C124.051 45.041 124.051 45.0532 124.051 45.0653C124.027 45.0897 124.002 45.114 123.99 45.1262C123.93 45.1627 123.833 45.1262 123.845 45.0532C123.845 45.0532 123.845 45.0167 123.857 45.0288L123.821 45.0653C123.905 45.0653 123.99 45.0653 124.075 45.0653C124.063 45.0532 124.063 45.0532 124.051 45.041C124.063 45.0532 124.063 45.0532 124.063 45.0532C124.051 45.041 124.063 45.041 124.063 45.0653C124.075 45.1383 124.039 45.187 123.942 45.2235C123.905 45.2113 123.881 45.2113 123.845 45.1992C123.796 45.1748 123.808 45.1018 123.821 45.0653C123.833 45.0532 123.821 45.0532 123.808 45.0775C123.821 45.0653 123.821 45.0653 123.808 45.0775C123.724 45.1383 123.687 45.2357 123.748 45.333C123.796 45.406 123.918 45.4547 124.002 45.3938C124.087 45.333 124.172 45.2478 124.184 45.1262C124.184 44.9923 124.087 44.8707 123.954 44.8707C123.821 44.8707 123.724 44.9558 123.711 45.0897C123.699 45.187 123.76 45.2722 123.821 45.333C123.893 45.406 124.002 45.3938 124.075 45.333C124.233 45.2113 124.269 44.9558 124.087 44.8342C124.002 44.7855 123.893 44.7733 123.808 44.822C123.699 44.8828 123.687 45.0288 123.711 45.1383C123.724 45.2357 123.845 45.2843 123.93 45.26C124.027 45.2235 124.063 45.1262 124.051 45.0288Z" fill="white"/>
<path d="M122.111 45.406C121.759 45.6128 121.286 45.5155 121.056 45.1748C120.923 44.9802 120.607 45.1627 120.741 45.3573C121.092 45.8562 121.759 46.0265 122.305 45.7223C122.499 45.6007 122.317 45.2843 122.111 45.406Z" fill="white"/>
<path d="M121.844 46.1968C121.577 46.4037 121.347 46.6713 121.189 46.9755C121.08 47.1823 121.395 47.3648 121.505 47.158C121.65 46.8782 121.856 46.647 122.111 46.4523C122.184 46.3915 122.171 46.2577 122.111 46.1968C122.026 46.1238 121.917 46.136 121.844 46.1968Z" fill="white"/>
<path d="M124.79 44.8585C125.033 44.5787 125.215 44.2623 125.336 43.9095C125.409 43.6905 125.057 43.5932 124.985 43.8122C124.888 44.1042 124.73 44.3718 124.536 44.603C124.39 44.7855 124.645 45.041 124.79 44.8585Z" fill="white"/>
<path d="M124.815 45.3208C125.106 45.26 125.445 45.187 125.676 45.4303C125.833 45.6007 126.088 45.3452 125.93 45.1748C125.603 44.822 125.13 44.8828 124.706 44.9802C124.487 45.0167 124.584 45.3695 124.815 45.3208Z" fill="white"/>
<path d="M105.451 38.4832C106.009 37.6072 107.331 38.1303 107.997 38.5683C108.798 39.0793 109.404 39.8458 109.95 40.6123C111.053 42.1575 112.035 43.8365 112.399 45.7223C112.447 45.9535 112.799 45.8562 112.75 45.625C112.326 43.3742 111.017 41.2085 109.537 39.4808C108.676 38.4832 106.239 36.5973 105.136 38.3128C105.015 38.4953 105.33 38.69 105.451 38.4832Z" fill="#161616"/>
<path d="M106.203 39.3105C109.113 40.953 110.75 44.0312 111.574 47.1702C111.635 47.4013 111.987 47.304 111.926 47.0728C111.077 43.8487 109.368 40.6732 106.385 38.9942C106.179 38.8725 105.997 39.1888 106.203 39.3105Z" fill="#161616"/>
<path d="M112.75 45.5642C113.054 43.4107 114.424 41.61 116.303 40.5758C117.273 40.0405 118.352 39.712 119.456 39.5538C119.977 39.4808 120.583 39.4078 121.092 39.6025C121.65 39.8093 122.184 40.6975 121.48 41.099C121.274 41.2085 121.456 41.5248 121.662 41.4153C122.438 40.9773 122.244 39.858 121.565 39.4322C120.51 38.763 118.764 39.2375 117.685 39.6025C115.018 40.4663 112.811 42.632 112.411 45.4912C112.362 45.698 112.714 45.7953 112.75 45.5642Z" fill="#161616"/>
<path d="M113.563 46.1117C114.157 45.4182 114.909 44.8342 115.636 44.2867C116.339 43.7513 117.091 43.3133 117.964 43.1187C118.195 43.07 118.098 42.7172 117.867 42.7658C116.97 42.9727 116.182 43.4228 115.454 43.9703C114.703 44.5422 113.927 45.1383 113.308 45.8562C113.151 46.0265 113.405 46.2942 113.563 46.1117Z" fill="#161616"/>
<path d="M118.013 43.1552C118.267 42.5712 118.595 42.0115 118.995 41.5127C119.068 41.4275 119.152 41.2815 119.249 41.2207C119.334 41.0625 119.443 41.0503 119.601 41.1963C119.795 41.1963 119.88 41.2693 119.88 41.4397C120.013 41.6952 120.025 42.1332 120.074 42.4252C120.122 42.6563 120.474 42.559 120.426 42.3278C120.329 41.8655 120.207 40.2108 119.334 40.661C118.995 40.8313 118.74 41.2572 118.522 41.5492C118.195 41.9993 117.928 42.4738 117.697 42.9727C117.6 43.1795 117.916 43.3742 118.013 43.1552Z" fill="#161616"/>
<path d="M120.353 42.5347C120.971 41.7317 122.232 40.6245 123.311 41.2207C123.517 41.3302 123.699 41.0138 123.493 40.9043C122.244 40.2352 120.838 41.3302 120.086 42.2792C119.953 42.4617 120.207 42.7172 120.353 42.5347Z" fill="#161616"/>
<path d="M123.663 41.1598C123.833 40.8922 124.621 39.931 124.96 40.1865C125.142 40.3203 125.179 40.7948 125.227 41.0138C125.3 41.3545 125.324 41.6952 125.336 42.048C125.348 42.2792 125.712 42.2792 125.7 42.048C125.688 41.5613 125.627 41.0868 125.506 40.6123C125.433 40.3447 125.373 39.8337 125.057 39.7485C124.766 39.6755 124.366 39.9553 124.148 40.1135C123.821 40.3447 123.566 40.6367 123.36 40.9773C123.226 41.172 123.542 41.3545 123.663 41.1598Z" fill="#161616"/>
<path d="M114.036 45.5155C114.872 46.3307 115.757 47.085 116.703 47.7663C117.637 48.4355 118.546 48.91 119.722 48.8492C119.953 48.837 119.953 48.472 119.722 48.4842C118.522 48.545 117.637 48.0097 116.703 47.3283C115.842 46.6957 115.042 46.0022 114.278 45.26C114.121 45.1018 113.866 45.3573 114.036 45.5155Z" fill="#161616"/>
<path d="M111.586 46.7687C112.908 52.6573 109.465 59.0935 112.314 64.7267C112.847 65.7852 113.66 66.7463 114.775 67.2208C115.867 67.6832 117.128 67.6467 118.255 67.2817C120.753 66.4787 122.366 64.1548 123.602 61.9648C124.39 60.59 125.045 59.1178 125.433 57.5727C125.627 56.8062 125.748 56.0032 125.785 55.2123C125.821 54.2998 125.7 53.3873 125.736 52.4748C125.748 52.2437 125.385 52.2437 125.373 52.4748C125.324 53.9592 125.518 55.3705 125.227 56.8427C124.972 58.1567 124.5 59.4342 123.905 60.6265C122.802 62.8652 121.311 65.3837 119.019 66.5638C117.831 67.1722 116.364 67.4033 115.091 66.9288C113.842 66.4665 113.017 65.3593 112.484 64.1792C111.344 61.612 111.477 58.692 111.78 55.9667C112.12 52.8763 112.653 49.7495 111.962 46.6592C111.877 46.4523 111.526 46.5375 111.586 46.7687Z" fill="#161616"/>
<path d="M116.982 58.9475C116.303 60.1398 115.854 61.4295 115.66 62.7922C115.624 63.0233 115.976 63.1207 116.012 62.8895C116.206 61.5512 116.63 60.298 117.297 59.13C117.419 58.9353 117.103 58.7528 116.982 58.9475Z" fill="#161616"/>
<path d="M117.212 59.0813C119.007 58.9232 120.898 58.5825 122.693 58.7772C122.923 58.8015 122.923 58.4365 122.693 58.4122C120.898 58.2053 119.007 58.5582 117.212 58.7163C116.982 58.7407 116.982 59.1057 117.212 59.0813Z" fill="#161616"/>
<path d="M115.842 63.1207C116.727 63.6438 117.758 63.5952 118.752 63.5708C119.795 63.5343 120.838 63.4127 121.747 62.8652C121.953 62.7435 121.759 62.4272 121.565 62.5488C120.704 63.072 119.734 63.1693 118.752 63.2058C117.831 63.2423 116.861 63.3032 116.024 62.8165C115.83 62.6948 115.648 63.0112 115.842 63.1207Z" fill="#161616"/>
<path d="M122.523 58.692C122.293 60.0303 121.941 61.32 121.468 62.5853C121.383 62.8043 121.735 62.9017 121.82 62.6827C122.305 61.4173 122.657 60.1155 122.875 58.7893C122.911 58.5582 122.56 58.4608 122.523 58.692Z" fill="#161616"/>
<path d="M116.885 59.5802C117.479 60.8942 119.165 61.2227 120.462 61.2348C120.692 61.2348 120.692 60.8698 120.462 60.8698C119.298 60.8455 117.734 60.5778 117.2 59.3855C117.103 59.1787 116.788 59.3733 116.885 59.5802Z" fill="#161616"/>
<path d="M119.504 60.7603C119.468 61.0645 119.431 61.3687 119.395 61.6607C119.371 61.8918 119.734 61.8918 119.759 61.6607C119.795 61.3565 119.831 61.0523 119.868 60.7603C119.892 60.5292 119.528 60.5292 119.504 60.7603Z" fill="#161616"/>
<path d="M120.195 60.7603C120.159 61.0645 120.122 61.3687 120.098 61.6728C120.074 61.904 120.438 61.904 120.462 61.6728C120.498 61.3687 120.535 61.0645 120.559 60.7603C120.583 60.5292 120.219 60.5292 120.195 60.7603Z" fill="#161616"/>
<path d="M120.51 61.2713C121.371 61.0767 122.087 60.5413 122.535 59.787C122.657 59.5802 122.341 59.3977 122.22 59.6045C121.808 60.2858 121.177 60.736 120.413 60.9185C120.183 60.9793 120.28 61.3322 120.51 61.2713Z" fill="#161616"/>
<path d="M117.855 42.4982C117.491 44.6517 117.891 47.2188 120.086 48.2043C120.292 48.3017 120.486 47.9853 120.268 47.888C118.219 46.9633 117.867 44.5908 118.207 42.5955C118.243 42.3643 117.891 42.267 117.855 42.4982Z" fill="#161616"/>
<path d="M125.312 41.9142C125.336 42.6077 125.324 43.3133 125.421 43.9947C125.518 44.7368 126.185 45.5642 125.833 46.3063C125.736 46.5132 126.052 46.7078 126.149 46.4888C126.464 45.8197 126.185 45.26 125.955 44.603C125.651 43.7635 125.724 42.7902 125.688 41.902C125.664 41.6708 125.3 41.6708 125.312 41.9142Z" fill="#161616"/>
<path d="M121.08 47.9488C121.614 47.669 122.22 47.961 122.341 48.545C122.353 48.6058 122.438 48.5815 122.426 48.5207C122.281 47.8758 121.614 47.5595 121.032 47.8637C120.983 47.9002 121.032 47.9853 121.08 47.9488Z" fill="white"/>
<path d="M122.002 48.5693C122.087 48.6667 122.147 48.7762 122.184 48.8978C122.208 48.9587 122.293 48.9343 122.268 48.8735C122.22 48.7397 122.147 48.618 122.062 48.5085C122.026 48.4598 121.953 48.5328 122.002 48.5693Z" fill="white"/>
<path d="M124.439 47.7177C124.548 47.2188 124.863 46.8052 125.324 46.574C125.373 46.5497 125.336 46.4645 125.276 46.501C124.791 46.7322 124.463 47.1702 124.354 47.6933C124.342 47.7542 124.427 47.7785 124.439 47.7177Z" fill="white"/>
<path d="M103.087 21.9243C102.25 22.3502 101.547 23.1532 101.232 23.506C100.456 24.3942 100.055 25.2215 99.619 26.1462C99.2552 26.9005 98.8308 27.9712 98.4913 29.3095C98.9642 29.3947 99.4371 29.4677 99.91 29.5528C99.8857 30.0152 99.8857 30.6965 100.068 31.4995C100.237 32.2295 100.516 33.3975 101.486 34.2127C102.82 35.3563 104.59 35.0765 104.918 35.0278C104.942 35.5997 105.063 36.4148 105.524 37.2543C105.645 37.4612 105.766 37.6558 105.888 37.8262C106.554 37.6315 107.585 37.23 108.591 36.4027C111.162 34.3222 111.514 31.2197 111.623 30.3193C111.78 28.9323 112.083 26.3165 110.374 24.1508C108.591 21.9122 105.209 20.8537 103.087 21.9243Z" fill="white"/>
<path d="M100.601 24.455C100.941 23.944 101.595 23.1897 102.335 22.6665C103.523 21.827 104.057 22.1798 104.663 21.4377C105.099 20.9023 105.378 20.0263 105.051 19.6127C104.53 18.9557 102.674 19.7465 102.432 19.856C101.898 20.0872 100.14 20.8293 99.4371 22.703C98.8551 24.2725 99.2431 25.988 99.5098 26.0245C99.5826 26.0367 99.6311 25.915 100.019 25.3188C100.201 25.0147 100.407 24.7348 100.601 24.455Z" fill="#5222D0"/>
<path d="M103.244 20.7928C103.147 21.1092 103.002 21.7418 103.487 22.9828C104.348 25.2093 106.36 27.2047 107.367 26.8397C107.585 26.7545 107.815 26.5355 108.252 26.5112C108.361 26.5112 108.798 26.4868 109.137 26.7545C109.671 27.1803 109.695 28.105 109.343 28.7012C109.283 28.8107 108.955 29.3095 108.458 29.346C108.022 29.3825 107.876 29.0418 107.524 29.0175C106.664 28.9688 105.924 30.8668 105.827 31.1223C105.633 31.609 105.16 32.8743 105.5 34.4925C105.572 34.8453 105.742 35.5875 106.263 36.354C107.391 37.9965 109.283 38.398 109.986 38.544C110.677 38.69 113.308 39.2375 115.357 37.5342C115.685 37.2665 116.764 36.3418 117.055 34.7723C117.552 32.12 115.333 30.1368 115.2 30.0273C115.103 28.6525 114.775 26.4625 113.623 24.0657C112.896 22.5448 112.217 21.1457 110.677 20.0872C108.652 18.7123 105.706 18.323 104.166 19.5153C104.008 19.6613 103.487 20.075 103.244 20.7928Z" fill="#5222D0"/>
<path d="M100.941 33.8477C100.759 34.0302 100.225 34.5898 100.128 35.4658C99.9949 36.6825 100.807 37.522 100.977 37.6923C101.862 38.6048 103.341 38.9698 104.408 38.4223C104.493 38.3858 105.427 37.887 105.463 37.1692C105.475 36.8528 105.306 36.6947 105.063 35.989C104.905 35.5267 104.808 35.1495 104.736 34.894C104.408 35.0035 103.851 35.1495 103.159 35.0522C101.923 34.894 101.159 34.091 100.941 33.8477Z" fill="#5222D0"/>
<path opacity="0.12" d="M103.366 21.8635C103.378 22.2407 103.426 22.8003 103.681 23.3965C103.851 23.798 104.02 24.0413 104.154 24.236C104.663 25.0147 104.833 25.7447 105.099 26.5598C105.524 27.8252 105.451 28.8837 105.366 30.1977C105.293 31.2927 105.051 32.9595 104.263 34.894C104.59 34.9913 105.063 35.186 105.572 35.5267C106.506 36.1593 106.93 36.9137 107.197 37.2665C107.743 37.9843 108.955 38.7387 111.877 38.69C111.586 38.398 111.174 37.96 110.725 37.4247C109.671 36.1837 108.749 35.1008 108.203 33.7868C107.888 33.0325 107.403 31.4873 107.779 29.2487C108.119 29.419 108.519 29.4068 108.834 29.2C109.161 28.981 109.367 28.543 109.258 28.1415C109.125 27.6792 108.567 27.3628 107.997 27.5088C107.876 27.2047 107.682 26.7667 107.367 26.2922C106.87 25.55 106.348 25.0877 106.154 24.9173C105.536 24.382 104.639 23.4695 103.366 21.8635Z" fill="#606060"/>
<path opacity="0.14" d="M98.6248 29.0905C98.6369 28.8958 99.2553 28.7377 99.7766 28.7742C100.237 28.8107 100.783 29.0175 100.771 29.2C100.759 29.3703 100.25 29.5042 99.8736 29.5163C99.2916 29.5407 98.6248 29.2852 98.6248 29.0905Z" fill="#606060"/>
<path d="M100.128 24.5645C99.4371 26.0853 98.8187 27.6305 98.2852 29.2122C98.2489 29.3095 98.3216 29.4068 98.4065 29.4312C98.8794 29.6137 99.3522 29.6988 99.8494 29.6867C100.08 29.6867 100.08 29.3217 99.8494 29.3217C99.3765 29.3217 98.94 29.2365 98.5035 29.0783C98.5399 29.1513 98.5884 29.2243 98.6247 29.2973C99.1461 27.74 99.7402 26.2192 100.431 24.7348C100.54 24.5402 100.225 24.3455 100.128 24.5645Z" fill="#161616"/>
<path d="M99.8008 29.7597C99.8978 31.3292 100.043 33.069 101.207 34.2492C102.323 35.3928 103.935 35.2955 105.403 35.1252C105.633 35.1008 105.633 34.7358 105.403 34.7602C104.045 34.9183 102.505 35.0522 101.462 33.9937C100.371 32.8865 100.262 31.2318 100.165 29.7597C100.152 29.5285 99.7887 29.5285 99.8008 29.7597Z" fill="#161616"/>
<path d="M104.687 35.1617C104.845 36.0133 105.136 36.8285 105.548 37.5828C105.657 37.7897 105.972 37.6072 105.863 37.4003C105.463 36.6582 105.196 35.8917 105.039 35.0643C105.002 34.8332 104.651 34.9305 104.687 35.1617Z" fill="#161616"/>
<path d="M100.043 31.6212C100.638 32.1443 101.523 31.901 101.753 31.1345C101.826 30.9033 101.474 30.8182 101.401 31.0372C101.256 31.5238 100.686 31.7063 100.31 31.3535C100.128 31.2075 99.8736 31.463 100.043 31.6212Z" fill="#161616"/>
<path d="M101.159 31.1223C101.353 31.171 101.498 31.2805 101.62 31.4265C101.68 31.4995 101.814 31.4873 101.874 31.4265C101.947 31.3535 101.935 31.244 101.874 31.171C101.717 30.9763 101.498 30.8303 101.256 30.7695C101.038 30.7087 100.941 31.0615 101.159 31.1223Z" fill="#161616"/>
<path d="M101.704 26.572C101.801 26.061 102.432 26.1583 102.771 26.3408C103.062 26.499 103.269 26.7545 103.39 27.0587C103.475 27.2777 103.826 27.1803 103.741 26.9613C103.547 26.4382 103.147 26.0245 102.59 25.8785C102.08 25.7447 101.474 25.9028 101.365 26.4747C101.316 26.7058 101.668 26.8032 101.704 26.572Z" fill="#161616"/>
<path d="M101.692 24.4185C102.238 23.506 103.305 24.2117 103.523 24.9782C103.584 25.2093 103.936 25.112 103.875 24.8808C103.717 24.3212 103.329 23.798 102.735 23.652C102.202 23.5303 101.656 23.7615 101.377 24.2238C101.256 24.4428 101.571 24.6253 101.692 24.4185Z" fill="#161616"/>
<path d="M102.056 28.6403C102.287 28.6403 102.287 28.2753 102.056 28.2753C101.826 28.2753 101.814 28.6403 102.056 28.6403Z" fill="#161616"/>
<path d="M102.747 28.0928C102.759 28.0928 102.784 28.0928 102.796 28.0928C102.893 28.0928 102.978 28.0077 102.978 27.9103C102.978 27.813 102.893 27.7278 102.796 27.7278C102.784 27.7278 102.759 27.7278 102.747 27.7278C102.65 27.7278 102.565 27.813 102.565 27.9103C102.565 28.0198 102.65 28.0928 102.747 28.0928Z" fill="#161616"/>
<path d="M102.759 28.7133C102.759 28.7255 102.759 28.7377 102.759 28.7498C102.759 28.981 103.123 28.981 103.123 28.7498C103.123 28.7377 103.123 28.7255 103.123 28.7133C103.123 28.4822 102.759 28.4822 102.759 28.7133C102.759 28.7255 102.759 28.7377 102.759 28.7498C102.759 28.981 103.123 28.981 103.123 28.7498C103.123 28.7377 103.123 28.7255 103.123 28.7133C103.123 28.4822 102.759 28.4822 102.759 28.7133Z" fill="#161616"/>
<path d="M108.046 26.8518C108.373 26.3773 108.931 26.6815 109.125 27.0708C109.283 27.375 109.283 27.74 109.271 28.0685C109.222 28.8958 108.531 29.4798 107.731 28.9688C107.537 28.835 107.355 29.1513 107.549 29.2852C108.022 29.6015 108.628 29.638 109.101 29.273C109.586 28.8958 109.671 28.2753 109.634 27.6913C109.598 27.1317 109.38 26.5112 108.798 26.3043C108.385 26.1583 107.973 26.3165 107.731 26.6693C107.609 26.8518 107.925 27.0343 108.046 26.8518Z" fill="#161616"/>
<path d="M75.4296 19.9047C75.175 19.9047 74.9204 19.9168 74.6779 19.9168C74.2656 20.7198 74.0353 21.4498 73.9019 21.9852C73.5139 23.5547 73.6109 24.8565 73.6836 25.4892C73.7321 25.915 73.8049 26.2678 73.8655 26.5112C74.0838 26.5112 74.302 26.5112 74.5203 26.5112C74.6051 26.8032 74.69 27.0952 74.7749 27.3872C76.824 27.375 78.5094 27.375 79.6855 27.3872C86.815 27.448 91.7863 27.7278 92.9381 27.7887C94.381 27.8738 95.5571 27.959 96.2846 28.0077C96.3089 27.5575 96.4301 27.3993 96.5393 27.3507C96.7333 27.2655 96.903 27.4723 97.1576 27.4237C97.4244 27.375 97.5941 27.0952 97.7033 26.8397C97.9215 26.9492 98.3216 27.0952 98.7945 27.0222C98.9036 27.01 99.0006 26.9735 99.0855 26.9492C99.2916 26.5355 99.4978 26.1218 99.7039 25.7082C99.4129 25.6108 99.0006 25.5257 98.5035 25.5257C98.2246 25.5257 97.9821 25.5622 97.776 25.5987C97.7518 25.5378 97.5578 24.9903 97.0485 24.8687C96.8909 24.8322 96.7575 24.8443 96.6484 24.8687C96.5756 24.7348 96.5029 24.601 96.4301 24.4672C96.1391 24.4185 95.6905 24.3455 95.157 24.2482C90.8284 23.4573 87.8093 22.4962 85.5055 21.8027C83.2988 21.1335 80.0856 20.221 75.9631 19.2112C75.7934 19.4423 75.6115 19.6735 75.4296 19.9047Z" fill="white"/>
<path opacity="0.07" d="M73.72 24.6253C73.8291 24.601 73.9503 24.8808 74.0837 24.8443C74.302 24.7957 74.2535 24.0292 74.302 23.4573C74.3383 22.9098 74.496 22.119 75.0295 21.1578C75.3811 21.3038 75.9146 21.535 76.5572 21.8148C78.8731 22.8247 80.4736 23.6033 80.9586 23.8223C84.1596 25.3188 87.6758 25.988 88.561 26.1583C90.5737 26.5477 93.3624 26.8883 96.709 26.7423C96.5634 27.1438 96.418 27.5453 96.2725 27.9468C95.7147 27.9347 94.9023 27.9347 93.9081 27.9103C89.6401 27.8252 86.6573 27.6913 84.9477 27.6183C82.5348 27.521 79.0792 27.4237 74.7142 27.4358C74.6657 27.1073 74.6172 26.7788 74.5687 26.4503C74.2898 26.499 74.011 26.5477 73.7321 26.5963C73.5502 25.0755 73.5987 24.6497 73.72 24.6253Z" fill="#606060"/>
<path d="M75.6843 19.2233C74.1686 21.5715 73.7443 24.4915 74.5203 27.1803C74.5809 27.4115 74.9325 27.3142 74.8719 27.083C74.1201 24.4793 74.5324 21.681 75.9995 19.4058C76.1329 19.199 75.8176 19.0165 75.6843 19.2233Z" fill="#161616"/>
<path d="M75.9995 19.5762C82.8259 21.3038 89.6401 23.0315 96.4665 24.747C96.6969 24.8078 96.7939 24.455 96.5635 24.3942C89.7371 22.6665 82.9229 20.9388 76.0965 19.2233C75.8782 19.1625 75.7812 19.5153 75.9995 19.5762Z" fill="#161616"/>
<path d="M74.7748 27.5818C81.8922 27.521 89.0096 27.6913 96.1148 28.0807C96.3452 28.0928 96.3452 27.7278 96.1148 27.7157C89.0096 27.3263 81.8922 27.156 74.7748 27.2168C74.5445 27.2168 74.5445 27.5818 74.7748 27.5818Z" fill="#161616"/>
<path d="M96.3574 24.6132C96.8424 25.696 96.7333 26.9248 96.0664 27.9103C95.933 28.105 96.2483 28.2875 96.3817 28.0928C97.1213 26.9978 97.2183 25.6352 96.6727 24.4307C96.5757 24.2238 96.2604 24.4063 96.3574 24.6132Z" fill="#161616"/>
<path d="M96.7211 25.0877C96.8545 25.185 96.9515 25.1485 97.1091 25.185C97.4122 25.2702 97.5335 25.55 97.5941 25.842C97.6911 26.3773 97.5577 27.5088 96.7696 27.1925C96.5513 27.1073 96.4543 27.4602 96.6726 27.5453C97.4728 27.8617 97.9942 27.0222 97.9942 26.3165C97.9942 25.9272 97.9457 25.4892 97.7275 25.1607C97.6547 25.0512 97.5577 24.9417 97.4365 24.8808C97.2788 24.8078 97.0606 24.8565 96.9272 24.7592C96.709 24.6375 96.5271 24.9538 96.7211 25.0877Z" fill="#161616"/>
<path d="M97.7881 25.7568C98.4065 25.7203 99.0249 25.7325 99.6311 25.8177C99.8615 25.842 99.8615 25.477 99.6311 25.4527C99.0128 25.3797 98.4065 25.3553 97.7881 25.3918C97.5578 25.4162 97.5578 25.7812 97.7881 25.7568Z" fill="#161616"/>
<path d="M97.7396 27.0952C98.2368 27.1803 98.7339 27.2168 99.231 27.1682C99.4614 27.1438 99.4614 26.7788 99.231 26.8032C98.7581 26.8397 98.2974 26.8275 97.8366 26.7423C97.6063 26.7058 97.5093 27.0465 97.7396 27.0952Z" fill="#161616"/>
<path d="M75.4781 19.8073C74.302 19.126 73.9746 21.2552 73.817 21.9243C73.4533 23.4695 73.2835 25.0633 73.7321 26.6085C73.7564 26.6815 73.8291 26.7423 73.9019 26.7423C74.0595 26.7423 74.2293 26.7423 74.3869 26.7423C74.6173 26.7423 74.6173 26.3773 74.3869 26.3773C74.2293 26.3773 74.0595 26.3773 73.9019 26.3773C73.9625 26.426 74.0231 26.4625 74.0716 26.5112C73.7564 25.3918 73.7564 24.2603 73.9383 23.1167C74.0231 22.6057 74.1323 22.0947 74.2656 21.5958C74.3505 21.2673 74.6173 19.7222 75.2841 20.1237C75.5024 20.2453 75.6843 19.929 75.4781 19.8073Z" fill="#161616"/>
<path d="M88.5852 22.4232C88.367 22.1555 88.0032 22.192 87.9547 22.192C87.5546 22.2163 87.1666 22.5813 86.7422 23.4695C85.9177 25.1607 85.8813 26.8518 85.8813 27.1195C85.8692 28.2875 85.9783 30.1855 86.8028 32.4485C86.8756 33.3975 87.0332 34.7237 87.3848 36.2688C88.0032 39.0428 88.658 41.9628 90.9132 44.5543C91.762 45.5398 93.4352 47.45 96.3452 48.1435C99.3886 48.8735 101.862 47.7907 102.468 47.5108C103.002 47.2553 104.493 46.501 105.754 44.9072C106.518 43.946 107.403 42.8997 107.258 41.61C107.197 41.0503 106.955 40.5758 106.591 39.8215C106.227 39.0672 106.033 38.69 105.645 38.544C105.112 38.3372 104.542 38.7022 103.911 39.0672C102.844 39.6755 102.747 40.2595 101.595 40.8678C101.292 41.026 100.989 41.1355 100.383 41.3302C99.425 41.6465 98.4792 41.9628 97.6062 42.0237C95.7026 42.1575 94.1748 41.0625 93.7383 40.7462C92.1257 39.5903 91.4952 38.0452 91.083 37.0353C90.1615 34.7723 90.2342 32.6918 90.3918 31.4752C90.9617 31.3778 91.3133 31.1467 91.4831 31.0128C92.1257 30.514 92.2833 29.8205 92.5258 28.7498C92.6835 28.0807 92.7562 27.7278 92.5865 27.594C92.2348 27.3263 91.1557 28.2023 90.9132 28.4092C90.9617 27.5818 91.083 26.9127 91.2042 26.4382C91.3618 25.8055 91.4467 25.477 91.665 25.2215C92.0893 24.7227 92.5865 24.7713 92.7562 24.2968C92.8532 24.0413 92.8411 23.6885 92.635 23.4817C92.3925 23.2383 91.8711 23.2505 91.4225 23.6033C91.277 23.287 90.986 23.0923 90.6707 23.0802C90.3555 23.068 90.1493 23.2627 90.0887 23.3113C90.1251 22.9828 89.9796 22.6787 89.7371 22.557C89.4097 22.3867 88.8883 22.5813 88.6943 23.0802C88.7065 23.0193 88.7913 22.6787 88.5852 22.4232Z" fill="white"/>
<path opacity="0.12" d="M87.9548 22.192C87.6638 22.703 87.3 23.4573 87.0575 24.4428C86.524 26.5842 86.9605 28.3727 87.1545 29.2365C89.24 38.1547 88.3307 38.3737 89.7857 40.4663C90.3192 41.2207 93.9809 46.282 99.4372 45.6128C104.008 45.0532 106.433 40.88 106.749 40.3203C106.93 40.807 107.149 41.6343 107.003 42.6198C106.785 44.0677 105.888 44.9802 105.56 45.3208C105.245 45.6372 104.857 45.917 104.069 46.4645C103.366 46.9633 102.675 47.4013 102.371 47.5595C100.929 48.3747 98.6975 48.5693 97.1455 48.3625C92.926 47.8028 90.3919 43.7878 89.337 42.121C86.9242 38.3128 86.6817 34.456 86.7059 32.5337C86.4755 31.755 86.2452 30.9642 86.0148 30.1855C85.8572 28.981 85.845 27.9833 85.8693 27.2898C85.9299 25.55 85.9784 24.2482 86.8635 23.141C87.2515 22.6543 87.6759 22.3623 87.9548 22.192Z" fill="#606060"/>
<path d="M104.372 46.282C106.288 45.3695 107.573 43.4593 107.258 41.2937C107.076 39.9797 106.021 37.7167 104.336 38.5197C103.584 38.8847 102.965 39.5538 102.274 40.0283C101.316 40.6853 100.213 41.1963 99.1097 41.5492C97.7032 41.9993 96.1391 42.0967 94.7811 41.4153C93.7869 40.9165 93.0109 40.1013 92.4167 39.1767C91.1072 37.1448 90.4282 34.748 90.5859 32.3268C90.598 32.0957 90.2342 32.0957 90.2221 32.3268C90.0887 34.3708 90.5374 36.3175 91.4346 38.1425C92.2227 39.7728 93.3746 41.3058 95.1206 41.9628C97.2425 42.7537 99.5584 41.9507 101.474 40.9408C102.335 40.4785 103.075 39.8823 103.851 39.2862C104.554 38.7387 105.257 38.471 105.972 39.201C106.858 40.1013 107.124 41.6708 106.858 42.8632C106.53 44.2867 105.475 45.3573 104.19 45.9657C103.984 46.063 104.166 46.3793 104.372 46.282Z" fill="#161616"/>
<path d="M90.5616 32.485C90.404 31.8158 90.8769 31.6455 91.3134 31.3292C91.568 31.1467 91.762 30.8912 91.9439 30.6357C92.4046 29.9665 92.7684 29.1878 92.8654 28.3727C92.9139 27.9712 92.9987 27.3385 92.4531 27.3142C91.8105 27.2898 91.5437 28.105 90.9375 28.1658C90.7071 28.1902 90.7071 28.5552 90.9375 28.5308C91.3982 28.4822 91.6286 28.1902 91.9802 27.9225C92.1864 27.7643 92.4167 27.5818 92.5259 27.9347C92.5865 28.1293 92.4895 28.4943 92.441 28.689C92.3561 29.1027 92.1742 29.5042 91.9802 29.8813C91.7984 30.222 91.5922 30.5748 91.3134 30.8547C91.0587 31.1223 90.7071 31.1832 90.4282 31.4022C90.0524 31.6942 90.113 32.193 90.21 32.5945C90.2706 32.8135 90.6222 32.7162 90.5616 32.485Z" fill="#161616"/>
<path d="M86.33 30.5627C86.0875 28.9932 86.0633 27.3872 86.3058 25.8177C86.4028 25.185 86.524 24.5402 86.7423 23.9318C86.8756 23.5547 87.0575 23.1167 87.3243 22.8125C87.688 22.411 88.4034 22.2042 88.5974 22.8855C88.658 23.1167 89.0096 23.0193 88.949 22.7882C88.7793 22.2042 88.2215 21.8878 87.6395 22.119C86.8999 22.4232 86.5483 23.3357 86.3179 24.0292C85.6389 26.134 85.6389 28.4943 85.9663 30.66C86.0148 30.8912 86.3664 30.7938 86.33 30.5627Z" fill="#161616"/>
<path d="M88.0881 24.2847C88.3791 23.5668 89.2036 22.119 90.1009 23.1045C90.2585 23.2748 90.5131 23.0193 90.3555 22.849C89.9433 22.3988 89.3491 22.3258 88.8278 22.63C88.2458 22.9585 87.979 23.6033 87.7365 24.1995C87.6516 24.4063 88.0033 24.5037 88.0881 24.2847Z" fill="#161616"/>
<path d="M89.6159 24.5888C89.628 24.1265 89.8099 23.6155 90.2585 23.3965C90.6344 23.214 91.083 23.2992 91.3376 23.6277C91.4831 23.8102 91.7378 23.5547 91.5923 23.3722C91.2406 22.9342 90.6101 22.8247 90.113 23.0558C89.531 23.3357 89.2643 23.9683 89.2521 24.5888C89.24 24.82 89.6038 24.82 89.6159 24.5888Z" fill="#161616"/>
<path d="M90.6708 24.7105C90.889 23.8953 91.7984 23.1532 92.5865 23.8102C92.7684 23.9562 93.023 23.7007 92.8411 23.5547C91.8348 22.7273 90.6223 23.506 90.3191 24.6132C90.2585 24.8443 90.6101 24.9417 90.6708 24.7105Z" fill="#161616"/>
<path d="M92.5138 23.7493C92.9018 24.2968 92.0409 24.6375 91.7378 24.893C91.4831 25.0998 91.3376 25.3675 91.2285 25.6717C90.9375 26.5112 90.8041 27.4237 90.7314 28.2997C90.7071 28.5308 91.0709 28.5308 91.0951 28.2997C91.1558 27.6548 91.2528 27.01 91.4104 26.3773C91.4589 26.1705 91.5074 25.9637 91.5801 25.7568C91.7378 25.331 91.9681 25.1728 92.3198 24.9173C92.7563 24.601 93.217 24.09 92.829 23.5425C92.6956 23.3722 92.3804 23.5547 92.5138 23.7493Z" fill="#161616"/>
<path d="M85.8814 30.1977C86.0754 31.025 86.3179 31.8402 86.621 32.6432C86.7059 32.8622 87.0575 32.7648 86.9727 32.5458C86.6695 31.7428 86.427 30.9277 86.233 30.1003C86.1845 29.8692 85.8329 29.9665 85.8814 30.1977Z" fill="#161616"/>
<path d="M86.5604 32.8743C87.0211 37.0597 88.0517 41.3545 90.8526 44.6152C93.0836 47.2067 96.6241 49.1777 100.116 48.5328C101.765 48.2287 103.269 47.4013 104.469 46.2455C104.639 46.0873 104.384 45.8197 104.214 45.99C101.814 48.3017 98.3944 48.91 95.351 47.5352C92.0772 46.0387 89.7856 43.2282 88.4882 39.9067C87.6152 37.6558 87.1787 35.2712 86.912 32.8865C86.8999 32.6432 86.5361 32.6432 86.5604 32.8743Z" fill="#161616"/>
</svg>
